<?xml version="1.0" standalone="no"?>
<!DOCTYPE svg PUBLIC "-//W3C//DTD SVG 1.1//EN" "http://www.w3.org/Graphics/SVG/1.1/DTD/svg11.dtd" >
<!--
2013-9-30: Created.
-->
<svg>
<metadata>
Created by iconfont
</metadata>
<defs>

<font id="iconfont" horiz-adv-x="1024" >
  <font-face
    font-family="iconfont"
    font-weight="500"
    font-stretch="normal"
    units-per-em="1024"
    ascent="896"
    descent="-128"
  />
    <missing-glyph />
    
    <glyph glyph-name="xinxi" unicode="&#58895;" d="M284.444444 509.155556C241.208889 509.155556 204.8 472.746667 204.8 429.511111s36.408889-79.644444 79.644444-79.644444 79.644444 36.408889 79.644445 79.644444-36.408889 79.644444-79.644445 79.644445z m227.555556 0c-43.235556 0-79.644444-36.408889-79.644444-79.644445s36.408889-79.644444 79.644444-79.644444 79.644444 36.408889 79.644444 79.644444-36.408889 79.644444-79.644444 79.644445z m182.044444 386.844444h-364.088888C147.911111 896 0 748.088889 0 566.044444v-252.586666c0-182.044444 147.911111-329.955556 329.955556-329.955556h61.44c31.857778 0 70.542222-109.226667 111.502222-109.226666 38.684444 0 77.368889 109.226667 109.226666 109.226666h79.644445c182.044444 0 329.955556 147.911111 329.955555 329.955556V566.044444C1024 748.088889 876.088889 896 694.044444 896z m298.097778-568.888889c0-168.391111-138.808889-304.924444-309.475555-304.924444h-75.093334c-31.857778 0-65.991111-102.4-102.4-102.4s-75.093333 102.4-104.675555 102.4H341.333333c-170.666667 0-309.475556 136.533333-309.475555 304.924444V559.217778C31.857778 727.608889 170.666667 864.142222 341.333333 864.142222h341.333334c170.666667 0 309.475556-136.533333 309.475555-304.924444V327.111111z m-252.586666 182.044445c-43.235556 0-79.644444-36.408889-79.644445-79.644445s36.408889-79.644444 79.644445-79.644444 79.644444 36.408889 79.644444 79.644444-36.408889 79.644444-79.644444 79.644445z"  horiz-adv-x="1024" />

    
    <glyph glyph-name="tubiao-" unicode="&#58894;" d="M822.74 522.4300000000001c-17.14 34.9-41.62 66.21-72.78 93.05-63.69 54.87-148.24 85.08-238.09 85.08s-174.4-30.21-238.09-85.08c-31.15-26.84-55.64-58.15-72.77-93.05a258 258 0 0 1-26.85-114.62c0-88 45-170.53 123.54-226.39 4.28-3.06 6.94-8.72 7.11-15.16s-2.26-12.46-6.5-15.82c-13.6-10.8-31.8-14-54.11-9.58a13 13 0 1 1-5.09-25.55 119.17 119.17 0 0 1 23.31-2.41c24.58 0 41.5 8.72 52.09 17.13s16.73 22.22 16.35 36.91-7.13 27.93-18.06 35.7c-71.55 50.92-112.58 125.7-112.58 205.17 0 147.06 139.8 266.7 311.65 266.7s311.66-119.64 311.66-266.7-139.81-266.7-311.66-266.7a360.86 360.86 0 0 0-88.8 11 13 13 0 1 1-6.42-25.25 387.12 387.12 0 0 1 95.22-11.79c89.85 0 174.4 30.22 238.09 85.09 31.16 26.84 55.64 58.14 72.78 93a258.16 258.16 0 0 1 0 229.24zM686.71 404.38a13 13 0 0 1 12.13 23.06L501.19 531.51a13 13 0 0 1-12.14-23.06zM402.47 474a13 13 0 0 1 5.46-17.59l197.65-104.06a13 13 0 1 1 12.14 23L420.07 479.47a13 13 0 0 1-17.6-5.47zM321.35 422a13 13 0 0 1 5.46-17.6l197.65-104.09a13 13 0 1 1 12.14 23.05L338.94 427.44a13 13 0 0 1-17.59-5.44z"  horiz-adv-x="1024" />

    
    <glyph glyph-name="logo-qq" unicode="&#58940;" d="M511.5 832.6c-247.4 0-448-200.6-448-448s200.6-448 448-448 448 200.6 448 448c0 247.5-200.6 448-448 448v0zM758.1 245c-11.6-10.8-31.4 1-50.5 27.4-8.3-22.4-19.1-43-31.6-61.5 27-9.6 44.4-24.7 44.4-41.7 0-29.3-51.9-53-115.9-53-38 0-71.5 8.3-92.8 21.2-21-12.9-54.8-21.2-92.8-21.2-64 0-115.9 23.7-115.9 53 0 16.8 17.4 32 44.4 41.7-12.7 18.5-23.3 39.1-31.6 61.5-19.1-26.2-39-38.2-50.5-27.4-15.8 14.8-9.8 67.3 13.7 117.1 5.4 11.4 11.2 21.6 17.2 30.5 3.3 144.6 98.5 260.7 215.4 260.7h0.4c116.9 0 212.1-115.9 215.4-260.7 6-8.9 11.8-19.1 17.2-30.5 23.2-49.8 29.4-102.3 13.5-117.1v0zM758.1 245z"  horiz-adv-x="1024" />

    
    <glyph glyph-name="zhifubao" unicode="&#58892;" d="M230.4 319.488c-12.288-9.728-25.088-24.064-28.672-41.984-5.12-24.576-1.024-55.296 22.528-79.872 28.672-29.184 72.704-37.376 91.648-38.912 51.2-3.584 105.984 22.016 147.456 50.688 16.384 11.264 44.032 34.304 70.144 69.632-59.392 30.72-133.632 64.512-212.48 61.44-40.448-1.536-69.632-9.728-90.624-20.992z m752.64-135.68c26.112 61.44 40.96 129.024 40.96 200.192C1024 666.112 794.112 896 512 896S0 666.112 0 384s229.888-512 512-512c170.496 0 321.536 83.968 414.72 211.968-88.064 43.52-232.96 115.712-322.56 159.232-42.496-48.64-105.472-97.28-176.64-118.272-44.544-13.312-84.992-18.432-126.976-9.728-41.984 8.704-72.704 28.16-90.624 47.616-9.216 10.24-19.456 22.528-27.136 37.888 0.512-1.024 1.024-2.048 1.024-3.072 0 0-4.608 7.68-7.68 19.456-1.536 6.144-3.072 11.776-3.584 17.92-0.512 4.096-0.512 8.704 0 12.8-0.512 7.68 0 15.872 1.536 24.064 4.096 20.48 12.8 44.032 35.328 65.536 49.152 48.128 114.688 50.688 148.992 50.176 50.176-0.512 138.24-22.528 211.968-48.64 20.48 43.52 33.792 90.112 41.984 121.344h-307.2v33.28h157.696v66.56H272.384V593.92h190.464V660.48c0 9.216 2.048 16.384 16.384 16.384h74.752V593.92h207.36v-33.28h-207.36v-66.56h165.888s-16.896-92.672-68.608-184.32c115.2-40.96 278.016-104.448 331.776-125.952z"  horiz-adv-x="1024" />

    
    <glyph glyph-name="mima" unicode="&#58945;" d="M890.87 519.77H270.5V588c0 64.21 25.2 124.77 71 170.53s106.32 71 170.53 71 124.77-25.2 170.53-71 71-106.32 71-170.53v-19.68a30 30 0 1 1 60 0V588a298 298 0 0 1-23.81 117.15 304.17 304.17 0 0 1-160.6 160.54 300.11 300.11 0 0 1-234.3 0 304.17 304.17 0 0 1-160.54-160.54A298 298 0 0 1 210.5 588v-68.23h-77.37a90.1 90.1 0 0 1-90-90v-461.63a90.1 90.1 0 0 1 90-90h757.74a90.1 90.1 0 0 1 90 90V429.77a90.1 90.1 0 0 1-90 90z m30-551.63a30 30 0 0 0-30-30H133.13a30 30 0 0 0-30 30V429.77a30 30 0 0 0 30 30h757.74a30 30 0 0 0 30-30zM512 312a109 109 0 1 1 109-109 109.13 109.13 0 0 1-109 109z m0-158a49 49 0 1 0 49 49 49.05 49.05 0 0 0-49-49z"  horiz-adv-x="1024" />

    
    <glyph glyph-name="QQ1" unicode="&#58893;" d="M511.999-128a512 512 0 1 1-512 512 512 512 0 0 1 512-512zM735.765 291.578c-3.55 49.47-36.192 90.932-55.09 112.47a70.383 70.383 0 0 1-15.577 67.003v1.718c0 97.235-68.028 167.254-153.35 167.55-85.333-0.342-153.35-70.315-153.35-167.55v-1.718a70.383 70.383 0 0 1-15.576-67.003c-18.898-21.413-51.54-62.874-55.09-112.47a75.39 75.39 0 0 1 7.554-40.425c7.555-10.308 28.513 2.06 43.406 34.93a210.33 210.33 0 0 1 35.499-67.914c-36.307-8.477-46.729-44.897-34.475-64.853 8.59-14.086 28.445-25.657 62.419-25.657 60.473 0 87.267 16.611 99.18 28.057a16.259 16.259 0 0 0 20.844 0c11.913-11.57 38.684-28.057 99.18-28.057 34.02 0 53.715 11.57 62.419 25.657 12.253 19.922 1.831 56.342-34.475 64.853a211.627 211.627 0 0 1 35.499 67.914c14.893-32.87 35.85-45.124 43.406-34.93a76.493 76.493 0 0 1 7.577 40.425z"  horiz-adv-x="1024" />

    
    <glyph glyph-name="youjiantou" unicode="&#58908;" d="M348.9 28c-7.8 0-15.7 3-21.7 9-12 12-12 31.4 0 43.4l305.5 305.5-305.5 305.5c-12 12-12 31.4 0 43.4s31.4 12 43.4 0l327.2-327.2c12-12 12-31.4 0-43.4L370.6 37c-6-6-13.9-9-21.7-9z"  horiz-adv-x="1024" />

    
    <glyph glyph-name="shouji" unicode="&#58913;" d="M512 76.9c-28.4 0-51.5-23.1-51.5-51.5 0-28.4 23.1-51.5 51.5-51.5 28.4 0 51.5 23.1 51.5 51.5C563.5 53.8 540.4 76.9 512 76.9zM822.8 867.5c-15 15-35 23.3-56.2 23.3L257.4 890.8c-43.8 0-79.5-35.7-79.5-79.5l0-854.6c0-43.8 35.7-79.5 79.5-79.5l509.2 0c43.8 0 79.5 35.7 79.5 79.5L846.1 811.3C846.1 832.5 837.9 852.5 822.8 867.5zM233.3 113l557.4 0 0-156.3c0-6.4-2.5-12.5-7.1-17-4.6-4.6-10.6-7.1-17-7.1L257.4-67.4c-13.3 0-24.1 10.8-24.1 24.1L233.3 113zM257.4 835.4l509.2 0c13.3 0 24.1-10.8 24.1-24.1l0-638.5L233.3 172.8 233.3 811.3C233.3 824.6 244.1 835.4 257.4 835.4z"  horiz-adv-x="1024" />

    
    <glyph glyph-name="weixin" unicode="&#58891;" d="M329.64 586.014c0-32.362-26.23-58.591-58.534-58.591-32.362 0-58.591 26.228-58.591 58.59 0 32.305 26.228 58.534 58.591 58.534 32.305 0.001 58.534-26.228 58.534-58.533z m-58.534 29.91c-16.531 0-29.91-13.436-29.91-29.968 0-16.474 13.379-29.85 29.91-29.85 16.473 0 29.91 13.377 29.91 29.85 0 16.532-13.437 29.967-29.91 29.967z m295.293-29.91c0-32.362-26.228-58.591-58.533-58.591-32.362 0-58.591 26.228-58.591 58.59 0 32.305 26.228 58.534 58.591 58.534 32.306 0.001 58.533-26.228 58.533-58.533z m-58.533 29.91c-16.531 0-29.91-13.436-29.91-29.968 0-16.474 13.379-29.85 29.91-29.85 16.475 0 29.91 13.377 29.91 29.85 0 16.532-13.435 29.967-29.91 29.967z m153.869-249.205c0-32.36-26.228-58.591-58.532-58.591-32.363 0-58.59 26.23-58.59 58.591 0 32.305 26.226 58.534 58.59 58.534 32.304 0 58.532-26.228 58.532-58.534z m-58.533 29.91c-16.532 0-29.91-13.435-29.91-29.968 0-16.473 13.377-29.85 29.91-29.85 16.474 0 29.91 13.377 29.91 29.85-0.001 16.533-13.436 29.968-29.91 29.968z m242.896-29.91c0-32.36-26.23-58.591-58.534-58.591-32.36 0-58.59 26.23-58.59 58.591 0 32.305 26.228 58.534 58.59 58.534 32.303 0 58.534-26.228 58.534-58.534z m-58.535 29.91c-16.533 0-29.91-13.435-29.91-29.968 0-16.473 13.376-29.85 29.91-29.85 16.473 0 29.91 13.377 29.91 29.85 0 16.533-13.437 29.968-29.91 29.968zM362.06 786.79c320.587 5.607 376.667-238.339 376.667-238.339 205.624-39.255 254.41-181.761 254.226-273.649-0.197-99.349-113.093-183.399-113.093-183.399l30.845-110.289-123.172 65.427s-236.671-83.185-372.198 137.393c0 0-101.585-2.803-144.259 14.02L122.79 125.99l41.125 125.243C-88.445 411.992 41.472 781.183 362.06 786.791zM706.95 551.256s-71.034 235.622-377.31 201.887C173.025 735.88 56.982 596.646 63.642 479.287c6.776-119.432 74.1-171.158 137.657-216.84l-27.104-77.577 90.662 45.8s101.878-22.432 132.72-16.824c-15.888 48.602-35.516 338.345 309.373 337.41z m154.217-507.519l-15.072 59.818c134.709 102.813 149.662 200.95 59.935 326.195-89.728 125.244-428.073 141.89-478.224-107.486-42.646-208.152 233.929-300.085 367-242.074l66.36-36.453z"  horiz-adv-x="1024" />

    
    <glyph glyph-name="mobile_phone" unicode="&#59166;" d="M869.5 208.9V707.4c0 68.9-55.9 124.8-124.8 124.8H277.9c-68.9 0-124.8-55.9-124.8-124.8v-498.5h716.4zM153.1 134v-70.9c0-68.9 55.9-124.8 124.8-124.8h466.9c68.9 0 124.8 55.9 124.8 124.8V134H153.1z m358.2-176.7c-39.1 0-70.8 31.7-70.8 70.8 0 39.1 31.7 70.8 70.8 70.8s70.8-31.7 70.8-70.8c0.1-39.1-31.6-70.8-70.8-70.8z"  horiz-adv-x="1024" />

    
    <glyph glyph-name="gongzhonghao" unicode="&#58942;" d="M691.23 532.944c4.507 0 8.986-0.1 13.443-0.267-28.388 129.985-162.366 228.411-323.384 228.411-181.675 0-328.95-125.292-328.95-279.845 0-90.299 50.286-170.592 128.32-221.762l-32.866-96.942 108.829 59.677c38.451-13.407 80.538-20.818 124.666-20.818 8.507 0 16.938 0.274 25.281 0.815-9.206 24.38-14.193 50.361-14.193 77.331 0.002 139.947 133.802 253.399 298.855 253.399zM494.811 622.75c26.828 0 48.577-21.748 48.577-48.577 0-26.828-21.748-48.577-48.577-48.577s-48.577 21.748-48.577 48.577c0.001 26.829 21.749 48.577 48.577 48.577zM268.823 525.596c-26.828 0-48.577 21.748-48.577 48.577 0 26.828 21.748 48.577 48.577 48.577s48.577-21.748 48.577-48.577c0-26.828-21.748-48.577-48.577-48.577zM968.964 279.544c0 130.059-124.345 235.492-277.733 235.492s-277.732-105.433-277.732-235.492 124.345-235.492 277.733-235.492c32.207 0 63.124 4.664 91.888 13.212l94.96-52.071-27.599 81.407c71.639 42.59 118.484 113.124 118.484 192.944zM604.458 313.337c-21.48 0-38.893 17.413-38.893 38.893 0 21.48 17.413 38.893 38.893 38.893 21.48 0 38.893-17.413 38.893-38.893-0-21.48-17.413-38.893-38.893-38.893zM785.396 313.337c-21.48 0-38.893 17.413-38.893 38.893 0 21.48 17.413 38.893 38.893 38.893 21.48 0 38.893-17.413 38.893-38.893-0-21.48-17.414-38.893-38.893-38.893z"  horiz-adv-x="1024" />

    
    <glyph glyph-name="DeleteOutline" unicode="&#58988;" d="M905.9 738.5H118.1c-21.8 0-39.4-17.6-39.4-39.4s17.6-39.4 39.4-39.4h39.4v-630.1c0-87 70.5-157.5 157.5-157.5h393.9c87 0 157.5 70.5 157.5 157.5V659.7h39.4c21.8 0 39.4 17.6 39.4 39.4s-17.6 39.4-39.3 39.4z m-118.2-709c0-43.4-35.3-78.8-78.8-78.8H315.1c-43.4 0-78.8 35.3-78.8 78.8V659.7h551.4v-630.2zM356.6 817.2h315.1c21.8 0 39.4 17.6 39.4 39.4S693.5 896 671.7 896H356.6c-21.8 0-39.4-17.6-39.4-39.4s17.6-39.4 39.4-39.4zM407.3 98.5c21.8 0 39.4 17.6 39.4 39.4V453c0 21.8-17.6 39.4-39.4 39.4s-39.4-17.6-39.4-39.4v-315.1c0-21.8 17.6-39.4 39.4-39.4zM616.7 98.5c21.8 0 39.4 17.6 39.4 39.4V453c0 21.8-17.6 39.4-39.4 39.4s-39.4-17.6-39.4-39.4v-315.1c0-21.8 17.6-39.4 39.4-39.4z"  horiz-adv-x="1024" />

    
    <glyph glyph-name="CartOutline" unicode="&#58989;" d="M962.6 158.7H352.3c-64.8 0-120.6 53.8-129.7 125.2L157.2 794c-1 7.7-4.2 15-9.2 21L92.9 881.2C78.5 898.6 52.7 901 35.2 886.5 17.8 872.1 15.5 846.2 30 828.8l47.4-57.1 63.9-498.3c14.4-112.1 105.1-196.7 211-196.7h610.2c22.6 0 41 18.3 41 41s-18.3 41-40.9 41zM338.6 723.6L800.4 660c42.8-6.6 76.3-60.7 76.3-123 0-58.6-29-109.7-67.6-121L401.6 312.3c-21.9-5.6-35.2-27.8-29.6-49.8 4.7-18.5 21.4-30.8 39.6-30.8 3.4 0 6.8 0.4 10.2 1.3l408.8 104c75.3 22 127.9 104.2 127.9 200 0 103.4-62.6 191-146.3 204L349.8 804.7c-23 3.4-43.1-12.6-46.2-35-3.1-22.4 12.6-43 35-46.1zM414.5 21.9c-13.1 8.8-28.8 14-45.8 14-17 0-32.7-5.2-45.8-14a82.97 82.97 0 0 1-22.1-22.1c-8.8-13.1-14-28.8-14-45.8 0-45.2 36.7-81.9 81.9-81.9s81.9 36.7 81.9 81.9c0 17-5.2 32.7-14 45.8-5.9 8.6-13.4 16.2-22.1 22.1zM854.4 21.9c-13.1 8.8-28.8 14-45.8 14-17 0-32.7-5.2-45.8-14a82.97 82.97 0 0 1-22.1-22.1c-8.8-13.1-14-28.8-14-45.8 0-45.2 36.7-81.9 81.9-81.9s81.9 36.7 81.9 81.9c0 17-5.2 32.7-14 45.8-5.8 8.6-13.3 16.2-22.1 22.1z"  horiz-adv-x="1024" />

    
    <glyph glyph-name="HomepageOutline" unicode="&#58993;" d="M1006.4 546.5L537.1 887.8a42.62 42.62 0 0 1-50.2 0L17.6 546.5c-19-13.8-23.3-40.5-9.4-59.6 8.3-11.5 21.3-16.8 34.5-16.8V-6c0-68.4 45.6-122 103.7-122h731.1c58.2 0 103.7 53.6 103.7 122V469.3c13.2 0 26.2 6.1 34.5 17.6 14 19 9.8 45.8-9.3 59.6zM426.7-42.7v217c0 47.1 38.3 85.3 85.3 85.3 47.1 0 85.3-38.3 85.3-85.3v-217H426.7zM896-6c0-22.4-12.1-36.7-18.4-36.7H682.7v217c0 94.3-76.4 170.7-170.7 170.7-94.3 0-170.7-76.4-170.7-170.7v-217H146.4c-6.3 0-18.4 14.3-18.4 36.7V512c0 2.9-1.1 5.4-1.6 8.1L512 800.6l385.6-280.5c-0.5-2.7-1.6-5.2-1.6-8.1v-518z"  horiz-adv-x="1024" />

    
    <glyph glyph-name="LinkOutline" unicode="&#58996;" d="M860.2 220.2c-55 0-103.4-27.3-133.1-68.9L326 367.6c0.6 5.5 1.7 10.8 1.7 16.4 0 5.6-1.1 11-1.7 16.5l401 216.3c29.7-41.6 78.1-68.9 133.1-68.9 90.5 0 163.8 73.4 163.8 163.8 0 90.5-73.4 163.8-163.8 163.8S696.3 802.2 696.3 711.7c0-4.7 1-9.2 1.4-13.8l-402.3-217c-29.8 40.4-77.4 67-131.5 67C73.4 547.8 0 474.5 0 384s73.4-163.8 163.8-163.8c54.1 0 101.7 26.6 131.5 67l402.3-217c-0.4-4.6-1.4-9.1-1.4-13.8 0-90.5 73.4-163.8 163.8-163.8s164 73.2 164 163.7-73.4 163.9-163.8 163.9z m0 570c43.3 0 78.5-35.2 78.5-78.5s-35.2-78.5-78.5-78.5-78.5 35.2-78.5 78.5 35.2 78.5 78.5 78.5zM163.8 305.5c-43.3 0-78.5 35.2-78.5 78.5s35.2 78.5 78.5 78.5 78.5-35.2 78.5-78.5-35.2-78.5-78.5-78.5z m696.4-327.7c-43.3 0-78.5 35.2-78.5 78.5s35.2 78.5 78.5 78.5 78.5-35.2 78.5-78.5-35.3-78.5-78.5-78.5z"  horiz-adv-x="1024" />

    
    <glyph glyph-name="MoreOutline" unicode="&#58998;" d="M270.773557 896H177.982619C80.092178 896 0 815.907822 0 717.917391v-92.790939C0 527.236012 80.092178 447.043843 178.082609 447.043843h92.790939c97.89044 0 178.082609 80.092178 178.082609 178.082609v92.790939C448.856166 815.907822 368.763988 896 270.773557 896z m96.490577-270.773557c0-53.194805-43.295772-96.490577-96.490577-96.490577H177.982619c-53.194805 0-96.490577 43.295772-96.490577 96.490577V718.017381c0 53.194805 43.295772 96.490577 96.490577 96.490577h92.790938c53.194805 0 96.490577-43.295772 96.490577-96.490577v-92.790938zM673.534225 505.03818c34.596621-34.596621 80.292159-51.894932 125.887706-51.894932 45.595547 0 91.291085 17.298311 125.887707 51.894932l40.596035 40.596035c69.293233 69.293233 69.293233 182.58217 0 251.875403L925.409628 838.005664c-34.696612 34.696612-80.292159 51.994922-125.987697 51.994922-45.595547 0-91.291085-17.298311-125.887706-51.994922L632.93819 797.509618c-69.293233-69.293233-69.293233-182.58217 0-251.875403l40.596035-40.596035zM695.932038 734.51577l40.596035 40.596035c16.698369 16.698369 38.996192 25.897471 62.993849 25.897471 23.897666 0 46.295479-9.199102 62.993848-25.897471l40.596035-40.596035c34.696612-34.696612 34.696612-91.191095 0-125.887706L862.41578 568.032028c-16.698369-16.698369-38.996192-25.897471-62.993849-25.897471-23.897666 0-46.295479 9.199102-62.993848 25.897471L695.932038 608.628064c-34.696612 34.696612-34.696612 91.191095 0 125.887706zM270.773557 320.956157H177.982619c-97.89044 0-177.982619-80.092178-177.982619-178.082609V50.082609c0-97.89044 80.092178-177.982619 178.082609-177.982619h92.790939c97.89044 0 178.082609 80.092178 178.082609 178.082609v92.790939c-0.09999 97.89044-80.192169 177.982619-178.1826 177.982619z m96.490577-270.773558c0-53.194805-43.295772-96.490577-96.490577-96.490577H177.982619c-53.194805 0-96.490577 43.295772-96.490577 96.490577v92.790939c0 53.194805 43.295772 96.490577 96.490577 96.490577h92.790938c53.194805 0 96.490577-43.295772 96.490577-96.490577v-92.790939zM845.817401 320.956157h-92.790939c-97.89044 0-178.082609-80.092178-178.082609-178.082609V50.082609c0-97.89044 80.092178-178.082609 178.082609-178.082609h92.790939c97.89044 0 178.082609 80.092178 178.082609 178.082609v92.790939c0 97.990431-80.092178 178.082609-178.082609 178.082609z m96.490577-270.773558c0-53.194805-43.295772-96.490577-96.490577-96.490577h-92.790939c-53.194805 0-96.490577 43.295772-96.490577 96.490577v92.790939c0 53.194805 43.295772 96.490577 96.490577 96.490577h92.790939c53.194805 0 96.490577-43.295772 96.490577-96.490577v-92.790939z"  horiz-adv-x="1024" />

    
    <glyph glyph-name="PersonalOutline" unicode="&#59002;" d="M499.274355 371.371869C219.310161 371.371869 0 170.296924 0-86.361299c0-23.013427 18.625274-41.638701 41.638701-41.638701s41.638701 18.625274 41.638701 41.638701c0 135.447672 76.353871 251.684982 192.98124 317.312256 40.956099-84.935149 127.158937-141.298543 223.6008-141.298543 96.149319 0 182.254642 56.168365 223.405771 140.81097 116.139796-65.724788 192.103609-181.669555 192.103609-316.824683 0-23.013427 18.625274-41.638701 41.638701-41.638701s41.638701 18.625274 41.638701 41.638701c-0.097515 256.658223-219.407675 457.733168-499.371869 457.733168z m0.585087-198.442053c-62.409294 0-118.577659 35.495286-146.759356 89.518332 94.101514 34.227597 199.514713 34.130083 293.323683-0.292544-28.279212-53.925531-84.447576-89.225788-146.564327-89.225788zM499.859442 396.920674c137.690506 0 249.637177 111.946672 249.637177 249.637178 0 3.217979-0.390058 6.240929-0.487572 9.361394l1.755261 0.780116-2.535377 15.017236c-3.608037 36.080373-15.212265 69.722884-32.569851 99.659842-0.097515 0.097515-0.195029 0.292544-0.195029 0.390058-7.11856 12.28683-15.212265 23.988573-24.281116 34.812685-0.390058 0.487573-0.877631 0.877631-1.267689 1.365203-8.19122 9.653938-17.162556 18.527759-26.621464 26.816494-1.267689 1.170174-2.437863 2.340349-3.803067 3.413008-9.26388 7.703647-19.307875 14.627178-29.644415 20.965623-2.437863 1.462718-4.680697 2.925436-7.11856 4.388153-10.336539 5.850871-21.160651 10.921627-32.374821 15.30978-2.535378 0.975145-5.070755 1.95029-7.606133 2.827921-11.701743 4.09561-23.696029 7.508618-36.080373 9.848967-1.95029 0.390058-3.900581 0.585087-5.753357 0.877631-13.35949 2.242834-26.914008 3.608037-40.9561 3.608037-9.751452 0-19.307875-0.682602-28.766784-1.755261-2.827921-0.292544-5.655842-0.877631-8.386249-1.267689-6.728502-0.975145-13.35949-2.242834-19.892962-3.803067-3.120465-0.682602-6.143415-1.560232-9.166365-2.340348-6.435958-1.755261-12.676888-3.803066-18.917818-6.0459-2.730407-0.975145-5.363299-1.852776-7.99619-2.925436-8.093705-3.315494-15.992382-6.923531-23.598515-10.921627-0.585087-0.292544-1.170174-0.487573-1.657747-0.780116-8.19122-4.485668-16.089896-9.458909-23.793543-14.822207-2.047805-1.462718-3.998095-3.02295-6.045901-4.485668-5.753357-4.193124-11.21417-8.678792-16.577468-13.35949-1.95029-1.755261-3.900581-3.413008-5.753357-5.265784-5.948386-5.655842-11.701743-11.506714-17.065042-17.747643-0.780116-0.877631-1.560232-1.657747-2.340348-2.535378-6.630988-7.801162-12.871917-16.089896-18.527759-24.671174L274.015808 756.749262l1.560232-1.755261c-15.894867-32.862394-25.158747-69.527854-25.158746-108.436149-0.195029-137.592991 111.751643-249.637177 249.442148-249.637178z m0 83.277402c-91.761166 0-166.45729 74.59861-166.45729 166.45729 0 15.504809 2.827921 30.327016 6.826017 44.564137C405.075326 639.634321 485.719836 610.379964 569.289782 610.379964c32.277307 0 63.774498 4.680697 94.589087 12.969431-11.409199-80.742025-80.254452-143.151319-164.019427-143.151319zM442.423388 802.191029c7.898676 2.925436 15.992382 5.753357 24.281116 7.508619 10.726597 2.145319 21.745739 3.315494 33.057423 3.315493 10.434054 0 20.47805-1.267689 30.327017-3.02295 2.925436-0.585087 5.753357-1.365203 8.581278-2.047805 7.11856-1.755261 14.042091-3.803066 20.770593-6.435958 2.730407-1.07266 5.558328-2.047805 8.19122-3.315494 7.606133-3.413008 14.919722-7.411104 21.940768-11.896772 1.170174-0.780116 2.535378-1.365203 3.705551-2.242834 7.801162-5.363299 15.017236-11.409199 21.745739-17.942672 2.535378-2.437863 4.778212-5.265784 7.216075-7.898676 3.803066-4.193124 7.411104-8.581278 10.824112-13.066946 2.827921-3.900581 5.558328-7.801162 8.093705-11.994286 2.047805-3.413008 3.803066-6.923531 5.655842-10.434054 2.632892-5.16827 5.363299-10.434054 7.508618-15.894868-92.93134-29.449386-198.734597-6.826017-272.455575 57.143511 15.407295 15.602324 33.64251 27.791639 53.632987 36.177887 2.340349 0.877631 4.778212 1.267689 6.923531 2.047805z"  horiz-adv-x="1024" />

    
    <glyph glyph-name="SearchOutline" unicode="&#59007;" d="M1011.40123-55.307099L755.926179 200.267943c-0.19998 0.19998-0.399961 0.19998-0.599941 0.399961 60.194122 73.392833 96.290597 167.283664 96.290596 269.573674C851.616834 705.418611 660.935456 896 425.858412 896 190.681379 896 0 705.418611 0 470.241578 0 235.064544 190.681379 44.383166 425.858412 44.383166c102.290011 0 196.080851 36.096475 269.473684 96.190606 0.19998-0.19998 0.19998-0.399961 0.399961-0.599941l255.475052-255.475052c8.29919-8.29919 19.198125-12.498779 30.097061-12.498779s21.797871 4.19959 30.09706 12.498779c16.698369 16.698369 16.698369 43.595743 0 60.194122zM425.858412 129.574846C237.97676 129.574846 85.19168 282.359926 85.19168 470.241578S237.97676 810.90831 425.858412 810.90831 766.425154 658.02324 766.425154 470.241578 613.640074 129.574846 425.858412 129.574846z"  horiz-adv-x="1024" />

    
    <glyph glyph-name="DditionOutline" unicode="&#59045;" d="M984.6 423.4H551.4V856.6C551.4 878.4 533.8 896 512 896s-39.4-17.6-39.4-39.4v-433.2H39.4C17.6 423.4 0 405.8 0 384s17.6-39.4 39.4-39.4h433.2v-433.2c0-21.8 17.6-39.4 39.4-39.4s39.4 17.6 39.4 39.4V344.6h433.2c21.8 0 39.4 17.6 39.4 39.4s-17.6 39.4-39.4 39.4z"  horiz-adv-x="1024" />

    
    <glyph glyph-name="xiaoxiongwanju" unicode="&#58910;" d="M339.85024 597.69856c-40.1664-23.30624-82.04288-53.4272-122.86976-88.76544-36.21888-31.34464-67.46112-60.5184-88.60672-81.66912-37.9648-37.95968-39.99232-98.06336-4.50048-133.5552 35.49696-35.49696 95.5904-33.46944 133.5552 4.49536l12.00128 12.00128v-76.09856h-0.13824v-0.01536c0-2.67776 0.05632-5.3504 0.13824-8.00768v-37.85728l-0.00512-0.2816v-93.45536c18.45248 43.27936 57.20576 73.10848 102.02624 73.10848 53.4784 0 98.31936-42.43968 110.34112-99.5584 1.97632 122.84928 53.46304 119.07072 60.05248 9.41568 14.74048 52.30592 57.53344 90.14272 108.02176 90.14272 47.37024 0 87.9616-33.31584 104.97536-80.62976v152.29952-49.50528 120.17152l11.73504-11.72992c37.9648-37.9648 98.05824-39.99232 133.5552-4.49536 35.49184 35.49184 33.46432 95.59552-4.49536 133.5552-21.15072 21.18656-52.35712 50.3552-88.59136 81.73056-36.608 31.69792-78.37184 59.1872-120.17664 81.32608-28.7488-66.51904-94.94528-113.08544-172.00128-113.08544-79.88224 0-148.09088 50.03776-175.01696 120.46336zM481.792 65.47456a2.56 2.56 0 0 0-2.50368 2.03264c-12.0832 57.4208-56.42752 97.52576-107.83744 97.52576-42.66496 0-80.85504-27.4176-99.67104-71.55712a2.56 2.56 0 0 0-4.9152 1.00352l0.00512 131.59424a255.78496 255.78496 0 0 0-0.13824 8.00768c0 0.29184 0.04608 0.56832 0.13824 0.82944V304.0256l-7.63392-7.6288c-39.06048-39.06048-100.59776-41.07264-137.17504-4.49536-17.67424 17.66912-26.92096 41.728-26.04544 67.74272 0.8704 25.95328 11.7248 50.6112 30.54592 69.43232 23.52128 23.5264 55.86432 53.34016 88.74496 81.79712 40.77056 35.28704 82.24256 65.24928 123.264 89.04704a2.56 2.56 0 0 0 3.67104-1.29536C369.41312 527.54432 438.784 479.7952 514.86208 479.7952a184.69888 184.69888 0 0 1 169.6512 111.54432 2.56 2.56 0 0 0 3.54816 1.24416c44.3904-23.50592 86.11328-51.74272 120.6528-81.65376 32.90112-28.48768 65.23392-58.32704 88.72448-81.85856 18.82112-18.816 29.66528-43.47392 30.5408-69.4272 0.87552-26.01472-8.37632-50.0736-26.04544-67.74272-36.58752-36.57728-98.11968-34.56-137.17504 4.49536l-7.36256 7.36256v-216.79104a2.56 2.56 0 0 0-2.11968-2.51904 2.51904 2.51904 0 0 0-2.85184 1.65376c-17.23904 47.9488-57.49248 78.93504-102.55872 78.93504-48.26112 0-90.68032-35.47648-105.55904-88.27904a2.49856 2.49856 0 0 0-2.7392-1.84832 2.56 2.56 0 0 0-2.2784 2.39104c-3.17952 52.93056-17.03936 80.27136-28.86144 80.09216-11.87328-0.26624-25.09824-28.34432-26.07616-89.39008a2.56 2.56 0 0 0-2.56-2.52928z m-110.34112 104.6784c48.78336 0 91.45344-34.2784 108.41088-85.1968 2.84672 47.29856 14.32576 77.184 30.45376 77.5424l0.28672 0.00512c15.69792 0 28.38528-28.43648 32.77824-72.192 18.2528 48.24576 59.72992 79.84128 106.48576 79.84128 43.32544 0 82.36032-27.17184 102.41024-70.24128v210.0224a2.56 2.56 0 0 0 4.37248 1.81248l11.73504-11.72992c37.05344-37.05856 95.34464-39.08096 129.93536-4.49536 34.5856 34.5856 32.5632 92.87168-4.49536 129.93536-23.40864 23.45472-55.64928 53.1968-88.45312 81.60768-33.62304 29.11744-74.12736 56.63744-117.2736 79.70304A189.81888 189.81888 0 0 0 514.8672 474.6752c-77.184 0-147.64544 47.8208-176.30208 119.30624-39.90528-23.39328-80.22528-52.64384-119.90528-86.98368-32.78848-28.37504-65.03424-58.10176-88.4736-81.54624-17.90464-17.89952-28.21632-41.32864-29.05088-65.98144-0.82944-24.58624 7.88992-47.29344 24.5504-63.95392 34.58048-34.58048 92.8768-32.5632 129.93536 4.49536l12.00128 12.00128a2.55488 2.55488 0 0 0 4.37248-1.81248v-76.09856c0-0.29184-0.04608-0.5632-0.13312-0.82432 0.01024-2.39104 0.06144-4.7616 0.13312-7.12192l-0.00512-120.29952c20.93056 39.94624 58.17344 64.29696 99.46112 64.29696zM514.86208 851.84a186.368 186.368 0 0 0 100.26496-29.08672c10.48576 22.49728 33.3056 38.09792 59.76576 38.09792 36.38784 0 65.90464-29.5168 65.90464-65.90464 0-31.16544-21.64224-57.27232-50.7136-64.13824a186.77248 186.77248 0 0 0 12.0832-66.2784c0-103.424-83.87584-187.29984-187.29984-187.29984S327.56224 561.10592 327.56224 664.52992c0 23.33696 4.28544 45.6704 12.08832 66.2784-29.07648 6.86592-50.7136 32.97792-50.7136 64.13824 0 36.38784 29.5168 65.90464 65.90464 65.90464 26.46016 0 49.27488-15.60064 59.76576-38.09792a186.29632 186.29632 0 0 0 100.25472 29.08672zM514.86208 474.6752c-104.68864 0-189.86496 85.1712-189.86496 189.85984 0 22.15424 3.7888 43.84256 11.264 64.50688a68.1728 68.1728 0 0 0-49.88928 65.90976c0 37.74976 30.71488 68.46464 68.46464 68.46464 25.54368 0 49.1008-14.42304 60.81024-36.98688a189.2352 189.2352 0 0 0 99.21536 27.97568 189.25056 189.25056 0 0 0 99.21536-27.97568c11.70944 22.56384 35.27168 36.98688 60.81024 36.98688 37.74976 0 68.46464-30.71488 68.46464-68.46464a68.18304 68.18304 0 0 0-49.88928-65.90976 188.9536 188.9536 0 0 0 11.25888-64.50688c0.00512-104.68864-85.16608-189.85984-189.85984-189.85984zM354.83648 858.2912c-34.92864 0-63.34464-28.416-63.34464-63.34464a63.09376 63.09376 0 0 1 48.7424-61.64992l2.8416-0.67072-1.03424-2.72896a183.86432 183.86432 0 0 1-11.92448-65.36704c0-101.86752 82.87744-184.73984 184.74496-184.73984s184.74496 82.87744 184.74496 184.73984c0 22.49728-4.00896 44.48768-11.91936 65.36704l-1.02912 2.72896 2.83648 0.67072a63.09888 63.09888 0 0 1 48.74752 61.64992c0 34.92864-28.416 63.34464-63.34464 63.34464-24.5248 0-47.07328-14.37696-57.4464-36.62336l-1.2288-2.64192-2.46272 1.56672a184.0896 184.0896 0 0 1-98.88768 28.68736 184.11008 184.11008 0 0 1-98.88768-28.68736l-2.4576-1.56672-1.23392 2.64192a63.6416 63.6416 0 0 1-57.45664 36.62336zM571.21792 375.38304v-72.63232c0-20.79744-13.70112-37.86752-30.38208-37.86752H483.16928c-16.68096 0-30.3872 17.04448-30.3872 37.86752v72.63232h118.43584zM540.83072 262.3232H483.16928c-18.16576 0-32.9472 18.13504-32.9472 40.42752v72.63744a2.56 2.56 0 0 0 2.56 2.56h118.43072a2.56 2.56 0 0 0 2.56-2.56v-72.63744c0-22.29248-14.77632-40.42752-32.94208-40.42752z m-85.48352 110.49984v-70.07744c0-19.46624 12.48256-35.30752 27.8272-35.30752h57.66144c15.34464 0 27.8272 15.84128 27.8272 35.30752v70.07744H455.3472zM423.31648 658.1504c18.07872 0 32.83456 18.54464 32.83456 41.2672s-14.75072 41.26208-32.83456 41.26208c-18.07872 0-32.83456-18.5344-32.83456-41.26208s14.75072-41.2672 32.83456-41.2672zM423.31648 655.5904c-19.51744 0-35.39456 19.6608-35.39456 43.8272 0 24.1664 15.87712 43.8272 35.39456 43.8272s35.39456-19.6608 35.39456-43.8272c-0.00512-24.1664-15.88224-43.8272-35.39456-43.8272z m0 82.5344c-16.6912 0-30.27456-17.36192-30.27456-38.7072s13.57824-38.7072 30.27456-38.7072 30.27456 17.36704 30.27456 38.7072-13.58336 38.7072-30.27456 38.7072zM606.40768 658.1504c18.07872 0 32.83456 18.54464 32.83456 41.2672s-14.75072 41.26208-32.83456 41.26208c-18.07872 0-32.82944-18.5344-32.82944-41.26208s14.75072-41.2672 32.82944-41.2672zM606.40768 655.5904c-19.51744 0-35.38944 19.6608-35.38944 43.8272 0 24.1664 15.87712 43.8272 35.38944 43.8272s35.38944-19.6608 35.38944-43.8272c0.00512-24.1664-15.872-43.8272-35.38944-43.8272z m0 82.5344c-16.6912 0-30.26944-17.36192-30.26944-38.7072s13.57824-38.7072 30.26944-38.7072 30.26944 17.36704 30.26944 38.7072-13.57824 38.7072-30.26944 38.7072zM371.45088-92.8512c62.52032 0 113.51552 58.50112 113.51552 130.2272 0 71.72096-50.9952 130.22208-113.51552 130.22208-62.5152 0-113.5104-58.50112-113.5104-130.22208 0-71.72608 50.9952-130.2272 113.5104-130.2272zM371.45088-95.41632c-64 0-116.0704 59.5712-116.0704 132.79232 0 73.216 52.0704 132.78208 116.0704 132.78208 64.00512 0 116.07552-59.56608 116.07552-132.78208 0-73.22112-52.0704-132.79232-116.07552-132.79232z m0 260.44928c-61.17888 0-110.9504-57.27232-110.9504-127.66208 0-70.39488 49.77152-127.67232 110.9504-127.67232 61.17888 0 110.95552 57.27744 110.95552 127.67232s-49.77152 127.66208-110.95552 127.66208zM371.45088-33.8432c34.19136 0 62.08 31.99488 62.08 71.2192 0 39.22944-27.88864 71.21408-62.08 71.21408s-62.07488-31.98976-62.07488-71.21408c0-39.22432 27.88352-71.2192 62.07488-71.2192zM536.35584 37.37088a130.22208 113.5104 90 1 1 227.0208 0 130.22208 113.5104 90 1 1-227.0208 0ZM649.87136-95.41632c-64 0-116.0704 59.5712-116.0704 132.79232 0 73.216 52.0704 132.78208 116.0704 132.78208s116.06528-59.56608 116.06528-132.78208c0-73.22112-52.06528-132.79232-116.06528-132.79232z m0 260.44928c-61.17888 0-110.9504-57.27232-110.9504-127.66208 0-70.39488 49.77152-127.67232 110.9504-127.67232 61.17376 0 110.94528 57.27744 110.94528 127.67232s-49.77152 127.66208-110.94528 127.66208zM649.86624-33.8432c34.18624 0 62.07488 31.99488 62.07488 71.2192 0 39.22944-27.88864 71.21408-62.07488 71.21408-34.18624 0-62.07488-31.98976-62.07488-71.21408 0-39.22432 27.88864-71.2192 62.07488-71.2192zM514.86208 610.48832c24.76032 0 44.94848 18.15552 44.94848 40.40704s-20.18816 40.40704-44.94848 40.40704c-24.7552 0-44.94848-18.15552-44.94848-40.40704s20.19328-40.40704 44.94848-40.40704zM514.86208 607.92832c-26.19392 0-47.50336 19.2768-47.50336 42.96704s21.30944 42.96704 47.50336 42.96704c26.19904 0 47.50848-19.2768 47.50848-42.96704s-21.30944-42.96704-47.50848-42.96704z m0 80.81408c-23.36768 0-42.38336-16.97792-42.38336-37.84704s19.01568-37.84704 42.38336-37.84704c23.3728 0 42.38848 16.97792 42.38848 37.84704s-19.01568 37.84704-42.38848 37.84704zM514.86208 635.38688c15.54944 0 28.23168 11.40224 28.23168 25.38496 0 13.98272-12.68224 25.37984-28.23168 25.37984-15.54944 0-28.23168-11.39712-28.23168-25.37984 0-13.9776 12.68224-25.38496 28.23168-25.38496zM420.60288 688.37888a11.0592 11.0592 0 0 1 11.03872 11.04384 11.0592 11.0592 0 0 1-11.03872 11.03872 11.0592 11.0592 0 0 1-11.03872-11.03872 11.0592 11.0592 0 0 1 11.03872-11.04384zM420.59776 685.81888c-7.49568 0-13.59872 6.10304-13.59872 13.60384s6.09792 13.59872 13.59872 13.59872 13.59872-6.09792 13.59872-13.59872-6.09792-13.60384-13.59872-13.60384z m0 22.08256c-4.67456 0-8.47872-3.80416-8.47872-8.47872 0-4.67968 3.80416-8.48384 8.47872-8.48384s8.47872 3.80416 8.47872 8.48384a8.48384 8.48384 0 0 1-8.47872 8.47872zM514.86208 554.99776c-24.35072 0-47.11936 10.41408-59.41248 27.17184a2.56 2.56 0 0 0 4.12672 3.03104c11.34592-15.47264 32.53248-25.08288 55.28576-25.08288 22.7584 0 43.93984 9.61024 55.28064 25.08288a2.56 2.56 0 1 0 4.12672-3.03104c-12.28288-16.75776-35.05152-27.17184-59.40736-27.17184zM606.40768 688.37888a11.0592 11.0592 0 0 1 11.03872 11.04384 11.0592 11.0592 0 0 1-11.03872 11.03872 11.0592 11.0592 0 0 1-11.03872-11.03872 11.0592 11.0592 0 0 1 11.03872-11.04384zM606.40768 685.81888c-7.5008 0-13.59872 6.10304-13.59872 13.60384s6.09792 13.59872 13.59872 13.59872c7.49568 0 13.5936-6.09792 13.5936-13.59872s-6.09792-13.60384-13.5936-13.60384z m0 22.08256c-4.67456 0-8.47872-3.80416-8.47872-8.47872 0-4.67968 3.80416-8.48384 8.47872-8.48384a8.48384 8.48384 0 0 1 0 16.96256zM512.30208 610.47808h5.12v-52.92032h-5.12zM714.57792 800.96256a2.54976 2.54976 0 0 0-2.47296 1.91488c-3.44576 13.1584-12.14976 21.85216-18.8416 26.8288a2.56 2.56 0 1 0 3.0464 4.11136c7.35744-5.46816 16.9216-15.04768 20.74112-29.6448a2.56 2.56 0 0 0-2.47296-3.21024zM720.2048 781.06624a3.62496 3.62496 0 1 1-3.62496 3.62496 3.6352 3.6352 0 0 1 3.62496-3.62496zM337.42848 754.68288a2.53952 2.53952 0 0 0-1.52576 0.50688c-7.35744 5.4784-16.9216 15.07328-20.72576 29.64992a2.56 2.56 0 1 0 4.95104 1.29536c3.4304-13.13792 12.1344-21.84704 18.83136-26.83904a2.56 2.56 0 0 0-1.53088-4.61312zM312.01792 800.69632a3.6352 3.6352 0 0 1 3.62496 3.62496 3.6352 3.6352 0 0 1-3.62496 3.61984 3.63008 3.63008 0 0 1-3.61984-3.61984 3.6352 3.6352 0 0 1 3.61984-3.62496z"  horiz-adv-x="1024" />

    
    <glyph glyph-name="shubao" unicode="&#58912;" d="M512 855.04c-16.35328 0-29.73696-13.37856-29.73696-29.73696 0-1.05472 0.06144-2.09408 0.16896-3.11296a136.23296 136.23296 0 0 0 29.568 3.26144c10.01984 0 19.89632-1.11616 29.568-3.26144 0.10752 1.01888 0.16896 2.05824 0.16896 3.11296C541.73696 841.66144 528.3584 855.04 512 855.04zM543.8208 819.06688l-2.80576 0.62464a133.82144 133.82144 0 0 1-58.03008 0l-2.80064-0.61952-0.30208 2.85184a32.3328 32.3328 0 0 0 32.11264 35.68128 32.3328 32.3328 0 0 0 32.11776-35.67616l-0.29184-2.86208zM512 852.48a27.20768 27.20768 0 0 1-27.17696-27.17184c17.98144 3.584 36.37248 3.584 54.35392 0A27.20768 27.20768 0 0 1 512 852.48zM512 825.4464c-59.83744 0-114.19648-39.50592-153.4464-103.04 96.91136 48.22016 210.4064 47.9744 307.27168-0.60928C626.54464 785.6896 572.03712 825.4464 512 825.4464zM672.71168 715.47392l-8.0384 4.03456c-95.47776 47.89248-209.48992 48.11776-304.97792 0.60416l-8.03328-3.99872 4.71552 7.63392C397.91104 790.98368 453.17632 828.0064 512 828.0064c59.02848 0 114.432-37.24288 156.00128-104.87296l4.7104-7.65952z m-161.21344 45.23008c50.44224 0 100.8896-10.89024 147.34848-32.68096C618.83904 789.28384 566.95808 822.8864 512 822.8864c-54.7584 0-106.51136-33.39776-146.46272-94.2848 46.0288 21.40672 95.98976 32.1024 145.96096 32.1024zM137.60512 298.56256v-282.66496c0-56.61184 47.9744-102.9376 106.5984-102.9376h535.59808c58.624 0 106.5984 46.32064 106.5984 102.9376v282.66496c-0.00512 612.00896-748.79488 614.23616-748.79488 0zM512 359.73632c-177.9456 0-326.6304-176.25088-353.536-404.81792 19.456-25.40544 50.69312-41.96352 85.73952-41.96352h535.59808c35.04128 0 66.2784 16.55808 85.7344 41.96352-26.91072 228.56704-175.5904 404.81792-353.536 404.81792zM779.8016-89.6H244.1984c-60.19072 0-109.1584 47.32416-109.1584 105.4976v282.66496c0 142.82752 40.62208 262.71744 117.4784 346.71104C320.78336 719.88224 412.75392 760.96512 511.488 760.96512c98.88256 0 191.07328-41.15968 259.59936-115.89632 77.11232-84.09088 117.86752-203.91424 117.86752-346.50624v-282.66496c0-58.17344-48.96256-105.4976-109.15328-105.4976zM511.488 755.84512c-97.28 0-187.91424-40.49408-255.19104-114.02752-75.97568-83.03616-116.13696-201.73312-116.13696-343.25504v-282.66496c0-55.35232 46.6688-100.3776 104.0384-100.3776h535.59808c57.36448 0 104.03328 45.0304 104.03328 100.3776v282.66496c0.00512 314.18368-193.00864 457.28256-372.34176 457.28256zM410.70592 229.49376v-18.41664c0-185.472 196.43904-184.80128 196.43904 0v18.41664c385.08544 0-45.38368 519.23968-45.38368 173.40416v-18.41664H442.1376v18.41664c0 315.36128-395.3408-173.40416-31.43168-173.40416zM137.59488 262.65088c54.20544 0 98.56-44.3648 98.56-98.55488v-152.58112c0-54.1952-44.34944-98.55488-98.56-98.55488-54.20544 0-98.55488 44.34944-98.55488 98.55488V164.096c0.00512 54.21056 44.34944 98.55488 98.55488 98.55488zM137.6-89.6c-55.75168 0-101.11488 45.35808-101.11488 101.11488v152.58624c0 55.75168 45.35808 101.10976 101.11488 101.10976 55.7568 0 101.12-45.35808 101.12-101.10976v-152.58624c-0.00512-55.7568-45.3632-101.11488-101.12-101.11488z m0 349.69088c-52.93056 0-95.99488-43.0592-95.99488-95.98976v-152.58624c0-52.93056 43.06432-95.99488 95.99488-95.99488s96 43.06432 96 95.99488v152.58624c-0.00512 52.93056-43.06944 95.98976-96 95.98976zM886.4 262.65088c54.20032 0 98.55488-44.3648 98.55488-98.55488v-152.58112c0-54.1952-44.35456-98.55488-98.55488-98.55488-54.21056 0-98.56 44.34944-98.56 98.55488V164.096c0 54.21056 44.34944 98.55488 98.56 98.55488zM886.4-89.6c-55.7568 0-101.11488 45.35808-101.11488 101.11488v152.58624c0 55.75168 45.35808 101.10976 101.11488 101.10976s101.11488-45.35808 101.11488-101.10976v-152.58624c0-55.7568-45.35808-101.11488-101.11488-101.11488z m0 349.69088c-52.93056 0-95.99488-43.0592-95.99488-95.98976v-152.58624c0-52.93056 43.06432-95.99488 95.99488-95.99488s95.99488 43.06432 95.99488 95.99488v152.58624c0 52.93056-43.06432 95.98976-95.99488 95.98976zM886.4 53.2736a2.56 2.56 0 0 0-2.56 2.56v7.25504a2.56 2.56 0 0 0 5.12 0v-7.25504a2.56 2.56 0 0 0-2.56-2.56z m0 18.14016a2.56 2.56 0 0 0-2.56 2.56v7.26016a2.56 2.56 0 0 0 5.12 0v-7.26016a2.56 2.56 0 0 0-2.56-2.56z m0 18.14528a2.56 2.56 0 0 0-2.56 2.56v7.25504a2.56 2.56 0 0 0 5.12 0v-7.25504a2.56 2.56 0 0 0-2.56-2.56z m0 18.14016a2.56 2.56 0 0 0-2.56 2.56v7.25504a2.56 2.56 0 0 0 5.12 0v-7.25504a2.56 2.56 0 0 0-2.56-2.56z m0 18.14016a2.56 2.56 0 0 0-2.56 2.56v7.26016a2.56 2.56 0 0 0 5.12 0v-7.26016a2.56 2.56 0 0 0-2.56-2.56z m0 18.14528a2.56 2.56 0 0 0-2.56 2.56v7.25504a2.56 2.56 0 0 0 5.12 0v-7.25504a2.56 2.56 0 0 0-2.56-2.56z m0 18.14016a2.56 2.56 0 0 0-2.56 2.56v7.25504a2.56 2.56 0 0 0 5.12 0v-7.25504a2.56 2.56 0 0 0-2.56-2.56z m0 18.14016a2.56 2.56 0 0 0-2.56 2.56v7.26016a2.56 2.56 0 0 0 5.12 0v-7.26016a2.56 2.56 0 0 0-2.56-2.56z m0 18.14528a2.56 2.56 0 0 0-2.56 2.56v7.25504a2.56 2.56 0 0 0 5.12 0v-7.25504a2.56 2.56 0 0 0-2.56-2.56z m0 18.14016a2.56 2.56 0 0 0-2.56 2.56v7.25504a2.56 2.56 0 0 0 5.12 0v-7.25504a2.56 2.56 0 0 0-2.56-2.56z m0 18.14016a2.56 2.56 0 0 0-2.56 2.56v7.26016a2.56 2.56 0 0 0 5.12 0v-7.26016a2.56 2.56 0 0 0-2.56-2.56z m0 18.14528a2.56 2.56 0 0 0-2.56 2.56v7.25504a2.56 2.56 0 0 0 5.12 0v-7.25504a2.56 2.56 0 0 0-2.56-2.56zM897.0496 65.7152l11.19232-64.31232c2.47296-14.208-9.79968-26.28608-21.77536-26.28608-11.9808 0-24.45312 12.19072-21.77536 26.28608l12.20608 64.31232h20.15232zM886.46656-27.4432c-6.95296 0-14.0288 3.52768-18.92352 9.4464-4.79744 5.79584-6.7072 12.8512-5.37088 19.87584l12.20608 64.31744a2.56 2.56 0 0 0 2.51392 2.08384h20.15744a2.56 2.56 0 0 0 2.51904-2.11968l11.19744-64.31744c1.24928-7.15264-0.7424-14.27968-5.6064-20.06528-4.85888-5.78048-11.84256-9.22112-18.69312-9.22112z m-7.45472 90.5984l-11.81184-62.22848c-1.04448-5.504 0.47616-11.0592 4.28032-15.65696 3.88096-4.6848 9.62048-7.59296 14.98624-7.59296 5.35552 0 10.88 2.7648 14.7712 7.39328 3.87584 4.60288 5.46304 10.25024 4.48512 15.89248l-10.8288 62.19264h-15.88224zM137.6 53.2736a2.56 2.56 0 0 0-2.56 2.56v7.25504a2.56 2.56 0 0 0 5.12 0v-7.25504a2.56 2.56 0 0 0-2.56-2.56z m0 18.14016a2.56 2.56 0 0 0-2.56 2.56v7.26016a2.56 2.56 0 0 0 5.12 0v-7.26016a2.56 2.56 0 0 0-2.56-2.56z m0 18.14528a2.56 2.56 0 0 0-2.56 2.56v7.25504a2.56 2.56 0 0 0 5.12 0v-7.25504a2.56 2.56 0 0 0-2.56-2.56z m0 18.14016a2.56 2.56 0 0 0-2.56 2.56v7.25504a2.56 2.56 0 0 0 5.12 0v-7.25504a2.56 2.56 0 0 0-2.56-2.56z m0 18.14016a2.56 2.56 0 0 0-2.56 2.56v7.26016a2.56 2.56 0 0 0 5.12 0v-7.26016a2.56 2.56 0 0 0-2.56-2.56z m0 18.14528a2.56 2.56 0 0 0-2.56 2.56v7.25504a2.56 2.56 0 0 0 5.12 0v-7.25504a2.56 2.56 0 0 0-2.56-2.56z m0 18.14016a2.56 2.56 0 0 0-2.56 2.56v7.25504a2.56 2.56 0 0 0 5.12 0v-7.25504a2.56 2.56 0 0 0-2.56-2.56z m0 18.14016a2.56 2.56 0 0 0-2.56 2.56v7.26016a2.56 2.56 0 0 0 5.12 0v-7.26016a2.56 2.56 0 0 0-2.56-2.56z m0 18.14528a2.56 2.56 0 0 0-2.56 2.56v7.25504a2.56 2.56 0 0 0 5.12 0v-7.25504a2.56 2.56 0 0 0-2.56-2.56z m0 18.14016a2.56 2.56 0 0 0-2.56 2.56v7.25504a2.56 2.56 0 0 0 5.12 0v-7.25504a2.56 2.56 0 0 0-2.56-2.56z m0 18.14016a2.56 2.56 0 0 0-2.56 2.56v7.26016a2.56 2.56 0 0 0 5.12 0v-7.26016a2.56 2.56 0 0 0-2.56-2.56z m0 18.14528a2.56 2.56 0 0 0-2.56 2.56v7.25504a2.56 2.56 0 0 0 5.12 0v-7.25504c0-1.41824-1.14176-2.56-2.56-2.56zM148.24448 65.7152l11.19744-64.31232c2.46784-14.208-9.8048-26.28608-21.7856-26.28608-11.97568 0-24.45312 12.19072-21.77536 26.28608l12.20608 64.31232h20.15744zM137.66144-27.4432c-6.95296 0-14.02368 3.52768-18.92352 9.4464-4.79744 5.79584-6.70208 12.8512-5.36576 19.87584l12.20608 64.31744a2.56 2.56 0 0 0 2.51392 2.08384h20.15744a2.56 2.56 0 0 0 2.52416-2.11968l11.20256-64.31744c1.24416-7.15776-0.74752-14.2848-5.61664-20.06528-4.85888-5.78048-11.84768-9.22112-18.69824-9.22112z m-7.4496 90.5984l-11.81184-62.22848c-1.04448-5.504 0.47616-11.06432 4.28032-15.66208 3.87584-4.67968 9.61536-7.58784 14.98112-7.58784 5.35552 0 10.88 2.7648 14.77632 7.39328 3.87584 4.60288 5.46816 10.25024 4.48512 15.89248l-10.8288 62.19264h-15.88224zM620.9792 330.1888c0 82.33472-217.96352 81.49504-217.96352 0 0-26.40384 21.60128-48.01024 48.01024-48.01024h121.9328c26.29632 0 48.02048 21.72416 48.02048 48.01024zM572.96384 279.61856H451.03104c-27.88352 0-50.57024 22.68672-50.57024 50.57024 0 43.97056 58.0352 63.99488 111.95904 63.99488 53.52448 0 111.12448-20.02432 111.12448-63.99488-0.00512-27.88352-22.69184-50.57024-50.58048-50.57024z m-60.544 109.44512c-53.0944 0-106.83904-20.224-106.83904-58.87488 0-25.0624 20.38784-45.45024 45.45024-45.45024h121.9328c25.06752 0 45.45536 20.38784 45.45536 45.45024 0 22.72768-17.66912 36.3776-32.49152 43.83232-19.3024 9.69728-45.4144 15.04256-73.50784 15.04256zM429.83424 337.61792c39.6544 0 71.99232 32.33792 71.99232 71.9872 0 39.64928-32.33792 71.9872-71.99232 71.9872-39.64928 0-71.9872-32.33792-71.9872-71.9872 0-39.64928 32.33792-71.9872 71.9872-71.9872zM429.83424 335.05792c-41.10848 0-74.55232 33.43872-74.55232 74.5472s33.44384 74.55232 74.55232 74.55232 74.55232-33.44384 74.55232-74.55232-33.44384-74.5472-74.55232-74.5472z m0 143.97952c-38.28736 0-69.43232-31.14496-69.43232-69.43232 0-38.28224 31.14496-69.4272 69.43232-69.4272s69.43232 31.14496 69.43232 69.4272c0 38.28736-31.14496 69.43232-69.43232 69.43232zM429.83424 412.09856m-12.00128 0a12.00128 12.00128 0 1 1 24.00256 0 12.00128 12.00128 0 1 1-24.00256 0ZM429.83424 397.53728c-8.02816 0-14.56128 6.53312-14.56128 14.56128s6.53312 14.56128 14.56128 14.56128 14.56128-6.53312 14.56128-14.56128-6.528-14.56128-14.56128-14.56128z m0 24.00768c-5.20704 0-9.44128-4.23424-9.44128-9.44128s4.23424-9.44128 9.44128-9.44128 9.44128 4.23424 9.44128 9.44128-4.23424 9.44128-9.44128 9.44128zM594.16064 337.61792c39.6544 0 71.99744 32.33792 71.99744 71.9872 0 39.64928-32.34304 71.9872-71.99744 71.9872-39.64928 0-71.9872-32.33792-71.9872-71.9872 0-39.64928 32.33792-71.9872 71.9872-71.9872zM594.16576 335.05792c-41.10336 0-74.55232 33.43872-74.55232 74.5472s33.44384 74.55232 74.55232 74.55232 74.55744-33.44384 74.55744-74.55232-33.44896-74.5472-74.55744-74.5472z m0 143.97952c-38.28736 0-69.43232-31.14496-69.43232-69.43232 0-38.28224 31.14496-69.4272 69.43232-69.4272s69.43744 31.14496 69.43744 69.4272c-0.00512 38.28736-31.1552 69.43232-69.43744 69.43232zM594.16064 412.09856m-12.00128 0a12.00128 12.00128 0 1 1 24.00256 0 12.00128 12.00128 0 1 1-24.00256 0ZM594.16576 397.53728c-8.02816 0-14.5664 6.53312-14.5664 14.56128s6.53312 14.56128 14.5664 14.56128 14.56128-6.53312 14.56128-14.56128-6.53312-14.56128-14.56128-14.56128z m0 24.00768c-5.21216 0-9.4464-4.23424-9.4464-9.44128s4.23424-9.44128 9.4464-9.44128c5.20704 0 9.44128 4.23424 9.44128 9.44128s-4.23936 9.44128-9.44128 9.44128zM773.33504 275.49184a2.56 2.56 0 0 0-2.14016 3.96288c28.3648 43.11552 9.7536 92.928 9.56416 93.42464a2.56 2.56 0 1 0 4.77696 1.83808c0.19968-0.52736 19.72736-52.79744-10.06592-98.0736a2.54976 2.54976 0 0 0-2.13504-1.152zM764.37504 265.50784a7.33184 7.33184 0 1 1-10.89024-9.82528 7.33184 7.33184 0 0 1 10.89024 9.82528zM211.77856 370.37056a2.56 2.56 0 0 0-2.56 2.56v40.43776a2.56 2.56 0 0 0 5.12 0v-40.43776a2.56 2.56 0 0 0-2.56-2.56zM211.77856 331.33568a2.56 2.56 0 0 0-2.56 2.56v4.34176a2.56 2.56 0 0 0 5.12 0v-4.34176a2.56 2.56 0 0 0-2.56-2.56z"  horiz-adv-x="1024" />

    
    <glyph glyph-name="icon-" unicode="&#58881;" d="M912 48H303.744a48.064 48.064 0 0 1 0-96h608.32a48 48 0 1 1-0.064 96zM128 832c-34.816 0-64-29.184-64-64 0-35.776 29.184-64 64-64 35.776 0 64 28.224 64 64 0 34.816-28.224 64-64 64zM303.744 720h608.32a48.32 48.32 0 0 1 47.744 48 48.256 48.256 0 0 1-47.744 48H303.744A48.256 48.256 0 0 1 256 768c0-26.112 21.568-48 47.744-48zM303.744 336h608.576A48.256 48.256 0 0 1 960 384a48.32 48.32 0 0 1-47.744 48H303.744A48.256 48.256 0 0 1 256 384c0-26.176 21.632-48 47.744-48zM128 448c-34.816 0-64-28.224-64-64 0-34.816 29.184-64 64-64 35.776 0 64 29.184 64 64 0 35.776-28.224 64-64 64zM128 64c-34.816 0-64-29.184-64-64 0-35.776 29.184-64 64-64 35.776 0 64 28.224 64 64 0 34.816-28.224 64-64 64z"  horiz-adv-x="1024" />

    
    <glyph glyph-name="icon-1" unicode="&#58883;" d="M124.032 485.376c0-207.552 259.456-440.448 388.032-440.448 129.28 0 388.032 231.552 388.032 440.448 0 133.952-88.64 237.696-204.928 237.696-78.208 0-127.744-37.248-154.176-116.544a30.656 30.656 0 0 0-57.856 0c-26.496 79.296-76.032 116.544-154.24 116.544-116.288 0-204.864-103.744-204.864-237.696z m571.072 298.624c152.192 0 265.856-132.928 265.856-298.624 0-244.096-287.488-501.376-448.96-501.376-160.832 0-448.96 258.624-448.96 501.376 0 165.696 113.664 298.624 265.856 298.624 81.408 0 143.232-32.768 183.104-95.936 39.808 63.168 101.696 95.936 183.104 95.936z m0 0"  horiz-adv-x="1024" />

    
    <glyph glyph-name="icon-2" unicode="&#58884;" d="M933.952 404.416c23.616 24 32 59.2 21.824 91.968a86.784 86.784 0 0 1-69.568 61.056l-182.592 27.648a43.712 43.712 0 0 0-32.768 24.704L589.248 782.016C574.656 812.864 545.024 832 512 832s-62.656-19.136-77.248-49.984L353.152 609.728a43.584 43.584 0 0 0-32.704-24.704l-182.656-27.648c-32.64-4.928-59.264-28.352-69.504-61.056a91.904 91.904 0 0 1 21.76-91.968l132.096-134.08c10.24-10.432 14.912-25.408 12.48-40.064L203.52 40.96a90.944 90.944 0 0 1 34.304-87.744c15.04-11.392 32.704-17.216 50.496-17.216a83.2 83.2 0 0 1 40.128 10.432l163.328 89.408a41.92 41.92 0 0 0 40.384 0l163.328-89.408c29.312-16 64.064-13.376 90.752 6.784a90.88 90.88 0 0 1 34.24 87.744l-31.168 189.312a46.464 46.464 0 0 0 12.48 40.064l132.16 134.08z m-175.296-96.256a93.056 93.056 0 0 1-24.576-79.616l29.76-181.632a40.256 40.256 0 0 0-15.296-38.848 38.4 38.4 0 0 0-42.304-3.136l-155.456 85.76a79.552 79.552 0 0 1-77.44-0.064l-155.52-85.696a38.272 38.272 0 0 0-42.304 3.072 40 40 0 0 0-15.296 38.848l29.696 181.632a92.928 92.928 0 0 1-24.576 79.68l-125.76 128.64a40.128 40.128 0 0 0-9.664 40.512 39.232 39.232 0 0 0 31.744 27.648l173.888 26.496c27.2 4.224 50.88 22.144 63.168 48.448l77.76 165.312C483.136 759.296 496.512 768 512 768s28.864-8.704 35.456-22.784l77.76-165.248c12.352-26.368 36.032-44.288 63.232-48.512l173.952-26.496a39.104 39.104 0 0 0 31.744-27.648 40.384 40.384 0 0 0-9.664-40.512l-125.824-128.64z"  horiz-adv-x="1024" />

    
    <glyph glyph-name="icon-3" unicode="&#58885;" d="M334.656 481.024m-66.496 0a66.496 66.496 0 1 1 132.992 0 66.496 66.496 0 1 1-132.992 0ZM512 834.752c-246.656 0-448-200.768-448-448 0-246.72 200.768-448 448-448 247.36 0 448 200.704 448 448 0 246.72-200.64 448-448 448z m0-851.648a404.032 404.032 0 0 0-403.648 403.648C108.352 609.152 289.152 790.4 512 790.4s403.648-180.736 403.648-403.648A404.096 404.096 0 0 0 512-16.896zM814.272 161.088a325.888 325.888 0 0 1-302.144 207.936 321.344 321.344 0 0 1-299.52-201.792 22.528 22.528 0 0 1 12.224-28.8 22.528 22.528 0 0 1 28.864 12.16 277.12 277.12 0 0 0 258.368 174.08 280.32 280.32 0 0 0 260.48-179.648c4.48-11.648 17.28-17.216 28.864-12.736s17.28 17.152 12.864 28.8zM717.12 481.024m-66.496 0a66.496 66.496 0 1 1 132.992 0 66.496 66.496 0 1 1-132.992 0Z"  horiz-adv-x="1024" />

    
    <glyph glyph-name="icon-4" unicode="&#58886;" d="M847.296 489.984c-19.328 31.36-46.72 59.392-81.536 83.2-69.824 47.872-162.176 74.176-260.16 74.176-79.808 0-155.84-17.344-219.84-50.24a342.976 342.976 0 0 1-81.472-57.344c-23.552-22.784-41.6-48-53.76-74.88a24.192 24.192 0 0 1 44.032-19.84c19.264 42.752 59.52 81.536 113.28 109.12 57.28 29.44 125.632 44.992 197.76 44.992 88.32 0 170.944-23.36 232.832-65.728 59.072-40.512 91.648-93.44 91.648-149.056s-32.512-108.544-91.648-148.992c-61.824-42.368-144.512-65.792-232.832-65.792a476.288 476.288 0 0 0-107.072 12.096 382.848 382.848 0 0 0-110.336 43.84c-47.36 28.416-80.832 65.024-96.704 105.472a24.128 24.128 0 1 1-44.928-17.6c19.776-50.56 60.16-95.232 116.8-129.28a428.16 428.16 0 0 1 124.16-49.408 518.208 518.208 0 0 1 118.08-13.376c97.984 0 190.336 26.304 260.096 74.176 34.816 23.808 62.272 51.904 81.536 83.136a199.168 199.168 0 0 1 30.976 105.664 197.632 197.632 0 0 1-30.912 105.664z m0 0M504.32 233.92a150.784 150.784 0 0 1 150.4 150.464 150.08 150.08 0 0 1-150.4 150.4c-82.944 0-150.4-67.52-150.4-150.464s67.456-150.4 150.4-150.4z m0 247.168a96.384 96.384 0 0 0 96.768-96.704c0-18.176-5.056-35.904-14.656-51.136a96.832 96.832 0 0 0-178.88 51.136c0 53.376 43.392 96.704 96.768 96.704z m0 0M504.32 832c-246.656 0-448-200.768-448-448 0-246.72 200.768-448 448-448 247.36 0 448 200.704 448 448 0 246.72-200.64 448-448 448z m0-851.648A404.032 404.032 0 0 0 100.672 384c0 222.4 180.736 403.648 403.648 403.648S907.968 606.848 907.968 384a404.096 404.096 0 0 0-403.648-403.648z"  horiz-adv-x="1024" />

    
    <glyph glyph-name="icon-5" unicode="&#58887;" d="M203.52 40.96l31.168 189.312a46.464 46.464 0 0 1-12.48 40.064L90.048 404.416a91.84 91.84 0 0 0-21.824 91.968c10.24 32.704 36.864 56.064 69.568 61.056l182.592 27.648a43.84 43.84 0 0 1 32.768 24.704L434.752 782.08C449.344 812.864 478.976 832 512 832s62.656-19.136 77.248-49.984l81.6-172.288c6.336-13.312 18.56-22.592 32.768-24.704l182.592-27.648c32.704-4.928 59.328-28.352 69.568-61.056a91.904 91.904 0 0 0-21.824-91.968l-132.096-134.08a46.464 46.464 0 0 1-12.48-40.064l31.168-189.312a90.88 90.88 0 0 0-34.24-87.744c-26.688-20.16-61.44-22.784-90.752-6.784L532.16 35.84a42.048 42.048 0 0 1-40.448 0l-163.264-89.408a83.008 83.008 0 0 0-90.688 6.784 90.816 90.816 0 0 0-34.24 87.744z"  horiz-adv-x="1024" />

    
    <glyph glyph-name="icon-6" unicode="&#58888;" d="M898.752 383.744a384.832 384.832 0 0 0-113.408-273.664c-73.28-73.152-170.432-113.344-273.792-113.344s-200.704 40.256-273.728 113.472c-73.28 73.088-113.472 170.24-113.472 273.728s40.384 200.704 113.536 273.92a384.256 384.256 0 0 0 273.792 113.408h0.96L512.704 832h-1.088a446.592 446.592 0 0 1-316.928-131.264 446.464 446.464 0 0 1-131.2-316.8c0-60.416 11.968-119.104 35.136-174.336a448.256 448.256 0 0 1 587.392-238.464 448.384 448.384 0 0 1 273.6 412.608h-60.864zM562.368 391.04l335.296 335.424v-174.848h60.8V829.44h-278.592v-60.672h174.208l-334.72-334.784z"  horiz-adv-x="1024" />

    
    <glyph glyph-name="icon-7" unicode="&#58889;" d="M334.592 478.272m-66.496 0a66.496 66.496 0 1 1 132.992 0 66.496 66.496 0 1 1-132.992 0ZM512 832C265.28 832 64 631.232 64 384c0-246.72 200.704-448 448-448s448 200.704 448 448c0 246.72-200.704 448-448 448z m0-851.648A404.032 404.032 0 0 0 108.352 384 403.968 403.968 0 0 0 512 787.648 403.712 403.712 0 0 0 915.648 384 404.096 404.096 0 0 0 512-19.648zM801.984 300.224a22.528 22.528 0 0 1-28.864-12.16 277.12 277.12 0 0 0-258.368-174.08 280.448 280.448 0 0 0-260.544 179.648 22.144 22.144 0 0 1-28.864 12.736 22.016 22.016 0 0 1-12.736-28.8 325.824 325.824 0 0 1 302.144-207.936 321.344 321.344 0 0 1 299.456 201.792 22.464 22.464 0 0 1-12.224 28.8zM717.12 478.272m-66.496 0a66.496 66.496 0 1 1 132.992 0 66.496 66.496 0 1 1-132.992 0Z"  horiz-adv-x="1024" />

    
    <glyph glyph-name="icon-8" unicode="&#58890;" d="M512 832a448 448 0 1 1 0.064-895.936A448 448 0 0 1 512 832z m0-821.312a102.208 102.208 0 1 0 0 204.416 102.208 102.208 0 0 0 0-204.416z m136.256 593.344L612.672 331.52H612.48A102.08 102.08 0 0 0 512 246.336 102.016 102.016 0 0 0 411.52 331.52h-0.256l-35.52 272.512h1.728c-0.768 5.632-1.728 11.2-1.728 17.088a136.32 136.32 0 0 0 272.512 0c0-5.888-1.024-11.456-1.728-17.088h1.728z"  horiz-adv-x="1024" />

    
    <glyph glyph-name="chenshan" unicode="&#59104;" d="M882.5856 21.0944L880.64 35.84c-37.888 248.6272-84.48 464.1792-102.4 545.28a74.24 74.24 0 0 1-46.4896 53.3504l-74.1376 27.9552-44.032 63.1808H411.136l-44.032-63.1808-74.1376-27.9552a74.24 74.24 0 0 1-46.4896-53.3504c-18.2272-81.1008-64.9216-296.96-102.4-545.28l-2.2528-14.9504 122.88-21.1968 61.44 277.6064c1.1264-0.8192 2.048-1.8432 3.1744-2.7648l23.8592-88.7808c-16.0768-54.3744 9.216-109.6704 10.24-112.64l6.7584-14.336 14.0288 7.168c10.24 5.0176 89.6 46.1824 114.688 92.16a69.0176 69.0176 0 0 1 13.5168-1.536 60.6208 60.6208 0 0 1 13.7216 2.1504c24.8832-45.8752 104.0384-87.1424 113.9712-92.16l14.1312-7.168 6.7584 14.336c1.2288 2.6624 26.5216 57.9584 10.24 112.64l23.8592 88.7808c1.1264 0.9216 2.048 1.9456 3.1744 2.7648l61.44-277.6064zM640.4096 559.104L583.68 595.1488 606.4128 680.96l30.72-44.032zM512 579.584l-56.2176 18.1248L430.08 695.0912h163.84l-26.0096-97.3824z m-125.2352 57.6512l30.72 44.032L440.32 595.1488l-56.7296-36.0448zM327.68 487.5264l-28.0576 12.4928A309.4528 309.4528 0 0 1 277.4016 414.72c-4.608-44.1344 3.3792-81.1008 22.6304-109.4656l-59.4944-270.1312L176.3328 46.08c37.376 241.4592 81.92 449.1264 100.1472 528.2816a43.52 43.52 0 0 0 27.3408 31.4368l67.2768 25.2928-3.9936-100.864L450.56 583.2704l53.8624-17.408v-311.5008a49.0496 49.0496 0 0 1-18.3296-4.7104c-18.2272 4.7104-76.6976 15.7696-112.64-24.2688l-18.432 68.3008-4.7104 3.1744C268.6976 352.1536 327.0656 486.4 327.68 487.5264z m57.5488-385.536c-6.656 21.2992-14.5408 61.44 4.9152 94.1056 18.5344 31.4368 56.6272 29.7984 77.5168 26.112a79.36 79.36 0 0 1-1.2288-14.7456 63.488 63.488 0 0 1 6.7584-31.3344c-10.3424-24.1664-53.3504-54.8864-87.9616-74.1376z m111.9232 105.472c0 16.4864 1.6384 16.4864 14.848 16.4864s14.848 0 14.848-16.4864c0-19.8656-4.608-19.8656-14.848-19.8656s-14.848 0-14.848 19.8656z m141.6192-105.472c-34.2016 19.456-77.7216 50.3808-87.6544 74.752a63.8976 63.8976 0 0 1 6.4512 30.72 79.36 79.36 0 0 1-1.2288 14.7456c20.48 3.6864 58.9824 5.3248 77.5168-26.112s11.264-72.6016 4.9152-94.1056z m34.5088 194.56l-4.7104-3.1744-18.3296-67.9936c-35.5328 40.0384-94.0032 28.9792-112.64 24.2688a49.0496 49.0496 0 0 1-18.3296 4.7104V565.8624l54.1696 17.408 83.3536-52.8384-3.9936 100.864 67.2768-25.2928A43.52 43.52 0 0 0 747.52 574.5664c17.92-79.1552 62.7712-286.72 100.1472-528.2816l-64.2048-11.1616-59.4944 269.7216C743.2192 332.8 751.2064 370.176 746.5984 414.72a309.4528 309.4528 0 0 1-22.2208 85.7088L696.32 487.5264c0.6144-1.1264 59.1872-135.168-23.04-190.6688z"  horiz-adv-x="1024" />

    
    <glyph glyph-name="maoyi" unicode="&#59105;" d="M882.0736 157.3888c5.2224 82.8416-72.4992 302.592-119.5008 426.9056a103.1168 103.1168 0 0 1-66.9696 62.1568l-79.9744 23.7568c1.9456 13.824 4.608 33.3824 4.608 40.3456 0 17.408-21.6064 24.6784-42.7008 29.4912a353.8944 353.8944 0 0 1-148.5824 0c-21.0944-4.8128-42.5984-12.0832-42.5984-29.4912 0-6.9632 2.56-26.5216 4.5056-40.3456l-79.9744-23.7568a103.3216 103.3216 0 0 1-66.9696-62.1568c-47.0016-124.3136-124.7232-344.1664-119.5008-426.9056l-12.3904-71.68 88.3712-32.3584 30.72 68.5056a1091.1744 1091.1744 0 0 1 57.1392 96.5632c2.4576-51.2 6.5536-94.4128 13.6192-110.6944l11.264-64.2048 9.728-2.4576c2.3552-0.6144 59.8016-14.5408 180.736-14.5408s178.2784 13.9264 180.6336 14.5408l9.728 2.4576L704.9216 107.52c7.0656 16.2816 11.1616 59.1872 13.6192 110.6944a1091.1744 1091.1744 0 0 1 57.1392-96.5632l30.72-68.5056 88.3712 32.3584zM583.68 661.6064l-1.024-6.9632a201.9328 201.9328 0 0 0-79.0528-13.1072 202.5472 202.5472 0 0 0-79.1552 13.1072l-1.024 6.9632c-1.3312 8.9088-2.9696 20.48-4.1984 30.208a218.4192 218.4192 0 0 1 84.3776-14.0288 218.2144 218.2144 0 0 1 84.2752 14.0288c-1.536-9.8304-3.1744-21.0944-4.1984-30.208z m-80.0768 55.6032a281.8048 281.8048 0 0 0 80.0768-10.24 200.2944 200.2944 0 0 0-80.0768-13.5168 200.4992 200.4992 0 0 0-80.1792 13.5168 282.0096 282.0096 0 0 0 79.872 10.24z m-356.864-611.328l6.4512 37.888 46.6944-16.384L184.32 92.16z m356.5568-48.5376a937.6768 937.6768 0 0 0-163.84 11.6736l-5.9392 33.8944a838.656 838.656 0 0 1 169.7792-13.824 838.2464 838.2464 0 0 1 169.5744 13.824l-5.9392-33.8944a937.1648 937.1648 0 0 0-163.6352-11.6736z m217.3952 228.864c1.4336 73.9328 0.6144 150.1184 0 186.88h-30.72c2.56-157.0816-1.536-331.5712-12.3904-351.232l-1.3312-2.048c-10.24-2.56-66.8672-14.9504-172.9536-14.9504s-162.6112 12.3904-173.056 14.9504l-1.1264 1.7408c-11.0592 20.48-15.1552 194.56-12.5952 351.5392h-30.72c-0.6144-36.7616-1.4336-112.64 0-186.88a958.5664 958.5664 0 0 0-79.0528-144.9984l-51.2 18.2272c-3.584 55.3984 40.2432 209.7152 117.5552 414.0032a72.6016 72.6016 0 0 0 46.8992 43.6224l91.0336 26.9312c15.2576-7.8848 44.1344-17.8176 92.16-17.8176s77.312 10.24 92.16 17.8176l91.0336-26.9312a72.6016 72.6016 0 0 0 46.8992-43.6224c77.312-204.8 121.1392-358.4 117.6576-414.0032l-51.2-18.2272a958.5664 958.5664 0 0 0-79.0528 144.9984z m101.7856-194.56l-15.6672 35.328 46.4896 16.2816 6.5536-37.888zM460.5952 530.6368l-34.304-34.304-34.4064 34.304-10.8544-10.8544 34.4064-34.304-34.4064-34.4064 10.8544-10.8544 34.4064 34.4064 34.304-34.4064 10.8544 10.8544-34.304 34.4064 34.304 34.304-10.8544 10.8544zM460.5952 397.0048l-34.304-34.4064-34.4064 34.4064-10.8544-10.9568 34.4064-34.304-34.4064-34.4064 10.8544-10.8544 34.4064 34.4064 34.304-34.4064 10.8544 10.8544-34.304 34.4064 34.304 34.304-10.8544 10.9568zM460.5952 263.2704l-34.304-34.4064-34.4064 34.4064-10.8544-10.8544 34.4064-34.4064-34.4064-34.304 10.8544-10.8544 34.4064 34.304 34.304-34.304 10.8544 10.8544-34.304 34.304 34.304 34.4064-10.8544 10.8544zM614.6048 530.6368l-34.4064-34.304-34.304 34.304-10.8544-10.8544 34.304-34.304-34.304-34.4064 10.8544-10.8544 34.304 34.4064 34.4064-34.4064 10.8544 10.8544-34.4064 34.4064 34.4064 34.304-10.8544 10.8544zM614.6048 397.0048l-34.4064-34.4064-34.304 34.4064-10.8544-10.9568 34.304-34.304-34.304-34.4064 10.8544-10.8544 34.304 34.4064 34.4064-34.4064 10.8544 10.8544-34.4064 34.4064 34.4064 34.304-10.8544 10.9568zM614.6048 263.2704l-34.4064-34.4064-34.304 34.4064-10.8544-10.8544 34.304-34.4064-34.304-34.304 10.8544-10.8544 34.304 34.304 34.4064-34.304 10.8544 10.8544-34.4064 34.304 34.4064 34.4064-10.8544 10.8544z"  horiz-adv-x="1024" />

    
    <glyph glyph-name="fengyi" unicode="&#59106;" d="M933.376 163.4304l-2.4576 12.4928C903.2704 319.1808 826.368 558.08 794.624 653.9264A102.4 102.4 0 0 1 717.7216 721.92l-48.9472 10.24-45.2608 56.832H435.9168L390.5536 732.16l-48.9472-10.24a102.4 102.4 0 0 1-76.8-68.1984C232.96 558.08 156.0576 319.1808 128.4096 175.9232l-2.3552-12.4928 96.5632-38.2976 99.84 225.28C316.416 230.4 309.5552 80.4864 309.5552 22.528v-11.1616l10.24-3.4816a725.0944 725.0944 0 0 1 209.7152-28.8768 723.968 723.968 0 0 1 209.8176 28.8768l10.24 3.4816V22.528c0 57.6512-6.7584 205.824-12.8 326.3488l99.7376-223.744z m-283.5456 542.72v-35.2256h-57.5488l54.6816-61.44-91.3408-91.4432-18.1248 48.3328 71.68 190.6688z m-57.0368 51.712L529.3056 588.8l-63.488 169.2672h126.976z m-143.36-1.024l111.5136-295.8336L411.648 610.304l54.6816 61.44h-57.5488v33.8944z m-109.056-722.944c1.3312 116.224 21.6064 484.4544 21.8112 488.2432l-30.72 1.7408c0-4.608-2.048-38.6048-4.608-87.2448L206.4384 164.5568l-45.3632 18.0224c29.184 142.5408 102.4 368.64 133.12 461.7216A71.68 71.68 0 0 0 348.16 692.0192l45.2608 9.4208v-45.3632h38.5024l-40.96-46.2848L573.44 427.3152v-416.3584c-13.824-0.7168-28.2624-1.2288-43.2128-1.2288a736.0512 736.0512 0 0 0-189.8496 24.1664z m387.4816 489.984l-30.72-1.7408c0-3.7888 20.48-372.0192 21.8112-488.2432a715.9808 715.9808 0 0 0-130.7648-21.9136V433.664l-1.1264 1.024-25.6 68.4032L668.16 609.28l-40.96 46.2848H665.6V701.44l46.3872-9.5232a71.68 71.68 0 0 0 53.8624-47.7184c30.72-92.7744 103.6288-319.1808 133.12-461.7216l-45.4656-18.0224-120.832 269.6192c-2.56 49.9712-4.5056 85.0944-4.8128 89.8048zM526.7456 389.12a20.48 20.48 0 1 1-20.48 20.48 20.48 20.48 0 0 1 20.48-20.48zM526.7456 286.3104a20.48 20.48 0 1 1 20.48-20.48 20.48 20.48 0 0 1-20.48 20.48zM526.7456 142.1312a20.48 20.48 0 1 1 20.48-20.48 20.48 20.48 0 0 1-20.48 20.48z"  horiz-adv-x="1024" />

    
    <glyph glyph-name="dilingshan" unicode="&#59107;" d="M907.5712 156.9792L784.4864 660.48l-19.1488-17.8176c-27.4432-25.6-66.56-36.1472-108.032-47.3088s-91.2384-24.4736-133.7344-56.5248c-42.3936 32.0512-90.7264 45.056-133.632 56.5248s-80.5888 21.7088-108.032 47.3088L262.7584 660.48l-122.88-501.76c-30.0032-26.112-45.568-61.44-36.352-82.8416a27.2384 27.2384 0 0 1 15.872-15.36c1.1264-14.7456 5.7344-35.7376 21.6064-44.4416a36.5568 36.5568 0 0 1 35.328 1.8432A58.4704 58.4704 0 0 1 209.2032 5.12a35.2256 35.2256 0 0 1 7.8848 0.9216 41.984 41.984 0 0 1 28.672 23.7568 35.7376 35.7376 0 0 1 20.48 11.1616c15.0528 16.1792 16.384 45.568 4.1984 89.3952l62.6688 189.8496L348.9792 179.2h349.2864l15.6672 141.2096 61.44-187.4944c-12.8-45.1584-11.6736-75.264 3.584-92.16a35.9424 35.9424 0 0 1 21.0944-11.1616 41.8816 41.8816 0 0 1 28.2624-23.3472 35.4304 35.4304 0 0 1 7.9872-0.9216 58.7776 58.7776 0 0 1 32.768 12.1856 36.352 36.352 0 0 1 35.2256-1.8432c15.9744 8.704 20.48 29.696 21.7088 44.4416A27.5456 27.5456 0 0 1 942.08 75.6736c9.216 21.6064-5.632 55.3984-34.5088 81.3056z m-663.4496-94.9248a6.2464 6.2464 0 0 0-5.5296-2.048l-13.312 2.7648-4.608-12.4928c-2.9696-7.9872-6.656-13.0048-10.24-13.824-6.0416-1.2288-16.5888 5.5296-22.016 10.8544l-9.216 9.4208-10.24-7.68c-7.8848-5.632-12.1856-6.3488-13.0048-6.144a49.4592 49.4592 0 0 0-5.9392 30.1056l0.9216 18.1248-17.8176-2.1504h-1.1264c0 6.656 6.4512 28.5696 31.8464 49.152l-2.2528 2.6624 78.9504-15.0528c13.7216-48.9472 5.2224-61.6448 3.584-63.6928z m458.752 437.9648L670.8224 209.92H376.4224l-32.0512 290.0992-30.72-3.3792 11.3664-103.0144-83.1488-252.5184-71.168 13.5168 109.9776 449.6384c29.5936-19.6608 64.6144-29.0816 101.2736-38.912 45.3632-12.1856 92.16-24.7808 131.7888-58.2656l10.24-8.3968 10.24 8.3968c39.2192 33.4848 85.7088 46.08 131.3792 58.2656 36.6592 10.24 71.68 19.2512 101.2736 38.912L876.544 154.624l-71.168-13.5168-83.3536 252.5184L733.4912 496.64z m89.8048-369.664h-0.7168 0.6144z m120.4224-40.96l-17.92 2.1504 0.8192-18.1248a52.0192 52.0192 0 0 0-5.8368-30.1056c-0.9216 0-5.2224 0-13.1072 6.144l-10.24 7.68-9.216-9.4208c-4.3008-4.3008-15.4624-12.288-22.016-10.8544-3.584 0.7168-7.3728 5.8368-10.24 13.824l-4.8128 11.5712-12.3904-1.8432a6.5536 6.5536 0 0 0-5.8368 2.048c-1.8432 2.048-10.24 14.9504 3.8912 63.3856l78.7456 15.0528-1.9456-2.3552c25.3952-20.48 32.3584-42.496 31.744-49.152z"  horiz-adv-x="1024" />

    
    <glyph glyph-name="changqun" unicode="&#59108;" d="M774.2464 76.8c-0.8192 10.24-1.8432 20.48-2.9696 31.5392l112.64 42.5984-2.048 12.4928c-40.96 247.9104-140.1856 471.9616-153.6 500.9408v77.312H307.9168v-77.1072c-13.2096-28.9792-112.64-253.0304-153.6-500.9408l-2.048-12.4928 112.64-42.5984c-1.2288-10.24-2.1504-21.1968-2.9696-31.5392l-1.1264-13.312 138.0352-30.72c0-5.4272 0-10.9568-0.512-16.384v-15.7696h240.0256l-0.512 15.7696v16.384l137.9328 30.72zM338.6368 710.9632h359.3216v-34.304H338.6368z m297.5744-646.7584C625.8688 321.4336 593.92 536.8832 593.92 539.136l-30.72-4.5056a4972.544 4972.544 0 0 0 43.3152-503.0912H430.08a4958.0032 4958.0032 0 0 0 43.4176 503.0912l-30.72 4.5056c0-2.2528-32.1536-217.7024-42.496-474.9312l-106.1888 23.6544c13.6192 148.6848 62.6688 332.4928 63.1808 334.4384L327.68 430.2848a2625.6384 2625.6384 0 0 1-58.4704-290.304l-81.92 30.72c39.3216 226.9184 126.6688 430.8992 146.3296 474.9312h369.7664C723.0464 602.0096 810.2912 398.0288 849.92 171.008l-81.92-30.72a2625.6384 2625.6384 0 0 1-58.4704 290.304l-29.696-7.9872c0-1.9456 49.4592-185.6512 63.1808-334.4384z"  horiz-adv-x="1024" />

    
    <glyph glyph-name="gaogenxie" unicode="&#59109;" d="M857.1904 476.16l5.4272 6.144-68.3008 160.768a32.1536 32.1536 0 0 1-19.3536 17.408 31.232 31.232 0 0 1-25.8048-2.7648c-25.3952-15.0528-81.3056-36.1472-170.9056-8.6016a37.376 37.376 0 0 1-43.52-17.3056C503.0912 576.3072 399.36 390.3488 372.3264 285.184 336.5888 268.288 175.104 189.44 130.56 123.0848a32.3584 32.3584 0 0 1 25.6-50.3808l266.24-10.24h8.3968A223.4368 223.4368 0 0 1 624.64 173.8752l66.3552 113.9712 16.896 19.0464c17.92-27.8528 30.72-74.1376 31.232-211.2512v-15.4624l54.6816 0.8192-1.4336 16.2816c-0.1024 2.3552-15.5648 250.1632 64.8192 378.88z m-190.464-169.0624L597.8112 189.44a192.9216 192.9216 0 0 0-174.08-95.8464l-266.24 10.24a1.3312 1.3312 0 0 0-1.3312 0.8192 1.8432 1.8432 0 0 0 0 1.7408c44.2368 65.9456 233.8816 153.6 235.52 154.4192l6.8608 3.1744 1.6384 7.2704c20.48 87.4496 104.448 244.5312 146.2272 319.5904a145.92 145.92 0 0 1 14.4384-7.168l6.0416 14.1312a126.5664 126.5664 0 0 0-12.9024 6.3488c2.6624 4.8128 5.12 9.216 7.2704 12.9024a6.656 6.656 0 0 0 6.0416 2.4576 6.4512 6.4512 0 0 0 1.9456 0c100.864-30.72 165.7856-6.0416 195.4816 11.4688l-7.7824 13.2096 9.1136-13.7216 60.7232-142.7456z m61.44 23.552l63.1808 71.68a794.9312 794.9312 0 0 1-28.9792-173.056c-6.656 55.1936-18.7392 80.9984-33.792 101.376zM581.12 576.1024a241.7664 241.7664 0 0 1 30.72-7.2704l2.56 15.1552a254.6688 254.6688 0 0 0-28.9792 6.7584zM657.1008 580.5056c-7.68 0-15.2576 0-22.9376 0.9216l-1.3312-15.2576c7.9872-0.7168 15.9744-1.024 23.9616-1.024a62.8736 62.8736 0 0 1 7.5776 0v15.36zM760.32 602.4192a235.52 235.52 0 0 0-27.8528-10.24l4.8128-14.9504A257.8432 257.8432 0 0 1 766.5664 588.8zM683.8272 581.8368l1.6384-15.2576a291.9424 291.9424 0 0 1 30.72 5.12l-3.3792 14.9504a260.1984 260.1984 0 0 0-28.9792-4.8128z"  horiz-adv-x="1024" />

    
    <glyph glyph-name="maozi" unicode="&#59110;" d="M808.0384 501.6576a327.68 327.68 0 0 1-16.2816 37.888c-27.5456 55.1936-85.9136 96.4608-160.256 113.2544-85.6064 19.2512-175.0016 2.9696-233.2672-42.5984a272.896 272.896 0 0 1-52.4288-53.9648C246.9888 517.12 148.992 418.2016 162.7136 287.8464c8.704-82.6368 56.5248-218.5216 276.48-218.5216h18.5344c196.096 6.4512 419.84 162.304 451.1744 239.0016s-40.1408 159.9488-100.864 193.3312z m69.3248-116.6336a172.6464 172.6464 0 0 1-50.3808 3.8912 302.2848 302.2848 0 0 1-6.144 67.1744 193.4336 193.4336 0 0 0 56.5248-71.0656z m-460.8 201.0112C468.2752 626.0736 547.84 640 624.64 622.7968c65.2288-14.7456 116.1216-50.0736 139.5712-96.9728a288.768 288.768 0 0 0 31.9488-140.8c-9.5232-1.8432-19.5584-4.1984-30.72-7.3728-40.96-12.3904-68.4032-42.0864-90.5216-75.776a459.5712 459.5712 0 0 0-220.0576 6.9632c-89.6 25.9072-121.344 80.896-132.096 109.6704a256 256 0 0 0 94.3104 167.5264z m227.2256-337.92c-1.3312-2.4576-2.56-4.9152-3.8912-7.2704a398.6432 398.6432 0 0 0-216.2688 29.3888C325.3248 312.32 321.024 376.6272 321.024 387.6864c18.8416-31.9488 56.2176-71.68 130.048-93.5936a459.0592 459.0592 0 0 1 128.3072-17.92 462.4384 462.4384 0 0 1 84.8896 7.68c-7.0656-12.4928-13.6192-24.2688-19.968-36.1472zM456.9088 100.352c-158.8224-5.3248-249.856 60.7232-263.5776 190.6688a195.9936 195.9936 0 0 0 2.1504 56.6272h14.0288c0 9.6256 0.8192 19.7632 1.8432 30.1056l-7.68 0.7168c2.4576 6.656 5.12 13.2096 8.192 19.5584h1.8432c0 1.9456 0.6144 3.8912 0.8192 5.8368A266.24 266.24 0 0 0 317.44 508.5184a290.304 290.304 0 0 1-27.2384-117.6576c-0.512-10.24-0.6144-96.768 121.6512-149.2992a456.2944 456.2944 0 0 1 177.0496-36.4544c11.9808 0 22.7328 0 32.1536 1.4336a187.4944 187.4944 0 0 0-24.064-32.4608 384.2048 384.2048 0 0 0-40.96-37.7856c-4.096-1.024-8.4992-2.048-13.6192-3.072l1.2288-5.8368a145.1008 145.1008 0 0 0-18.944-10.24l-2.1504 12.5952c-10.24-1.6384-19.968-2.9696-30.0032-3.9936l1.6384-15.2576c7.0656 0.7168 14.336 1.8432 21.504 2.8672a262.144 262.144 0 0 0-47.0016-12.1856zM880.64 320.3072c-18.944-46.3872-144.9984-147.0464-289.1776-194.56 8.6016 7.7824 17.6128 16.5888 27.5456 26.8288a358.4 358.4 0 0 1 52.3264 80.4864c26.2144 49.152 53.4528 99.9424 103.3216 114.9952 60.416 18.2272 97.0752 7.9872 110.8992 2.2528a70.8608 70.8608 0 0 0-4.9152-30.0032zM209.7152 327.3728L194.56 326.656a277.9136 277.9136 0 0 1 2.9696-31.3344l15.1552 2.2528c-1.536 9.5232-2.4576 19.5584-2.9696 29.7984zM216.3712 278.1184l-14.9504-3.584a227.2256 227.2256 0 0 1 9.6256-30.72l14.2336 6.144a204.8 204.8 0 0 0-8.9088 28.16zM339.2512 125.1328a265.216 265.216 0 0 1 30.72-8.8064l3.4816 14.9504a281.3952 281.3952 0 0 0-28.672 8.2944zM472.6784 124.0064c-8.0896 0-16.2816-0.7168-24.1664-0.7168h-5.9392v-15.36h6.144c8.192 0 16.5888 0 25.088 0.7168zM219.9552 224.9728a194.56 194.56 0 0 1 17.1008-27.0336l12.288 9.3184a164.7616 164.7616 0 0 0-15.7696 24.8832zM390.2464 112.3328c10.24-1.6384 20.48-2.7648 30.72-3.4816l1.024 15.2576c-10.24 0.7168-20.48 1.8432-29.7984 3.3792zM291.7376 148.48a208.1792 208.1792 0 0 1 27.9552-15.0528l6.3488 13.9264a219.648 219.648 0 0 0-26.112 14.1312zM261.9392 192.3072l-11.1616-10.24a190.3616 190.3616 0 0 1 18.7392-17.5104l4.8128-3.9936 9.5232 12.0832-4.5056 3.6864a175.8208 175.8208 0 0 0-17.408 15.9744z"  horiz-adv-x="1024" />

    
    <glyph glyph-name="wazi" unicode="&#59111;" d="M592.7936 633.4464v78.9504H320.6144v-295.7312L215.04 314.7776A138.3424 138.3424 0 0 1 310.8864 76.8a139.264 139.264 0 0 1 71.68 20.48 139.0592 139.0592 0 0 1 229.4784-61.44l130.7648 126.0544a180.6336 180.6336 0 0 1 54.9888 129.3312V633.4464z m174.08-30.72v-48.3328h-174.08v48.3328z m-204.8 78.9504v-48.2304H351.3344v48.2304z m-327.68-542.72a108.032 108.032 0 0 0 1.536 153.6l115.4048 111.0016V602.7264h210.7392v-232.448a149.504 149.504 0 0 0-45.6704-107.2128l-17.8176-17.2032a88.3712 88.3712 0 0 0-11.5712 13.1072l-12.5952-8.9088a113.2544 113.2544 0 0 1 13.1072-14.848l-101.7856-98.0992A108.6464 108.6464 0 0 0 234.496 138.24z m487.0144 45.4656l-17.8176-17.2032a93.7984 93.7984 0 0 0-11.6736 13.1072l-12.4928-8.9088a105.472 105.472 0 0 1 13.1072-14.848l-102.4-97.9968a108.3392 108.3392 0 0 0-151.1424 1.4336A106.9056 106.9056 0 0 0 409.6 117.76l128.1024 122.88a180.1216 180.1216 0 0 1 55.0912 129.3312v153.6h174.08v-232.448a149.6064 149.6064 0 0 0-45.3632-107.1104zM721.5104 330.0352l6.4512-13.9264a92.16 92.16 0 0 0 27.136 7.7824l-1.9456 15.2576a109.9776 109.9776 0 0 1-31.6416-9.1136zM679.5264 295.1168l12.4928-8.9088a94.6176 94.6176 0 0 0 19.7632 20.48l-9.216 12.288a109.2608 109.2608 0 0 1-23.04-23.8592zM660.2752 222.1056a104.5504 104.5504 0 0 1 8.3968-31.9488l14.0288 6.144a90.624 90.624 0 0 0-7.168 27.3408zM660.2752 244.1216l15.2576-1.6384a90.624 90.624 0 0 0 7.168 27.3408l-14.0288 6.144a104.6528 104.6528 0 0 1-8.3968-31.8464zM549.9904 402.8416l-1.8432 15.2576a103.6288 103.6288 0 0 1-31.744-9.1136l6.5536-13.9264a88.9856 88.9856 0 0 0 27.0336 7.7824zM506.7776 385.3312l-9.216 12.3904A107.4176 107.4176 0 0 1 474.5216 373.76l12.4928-8.9088a87.9616 87.9616 0 0 0 19.7632 20.48zM477.696 275.3536A90.0096 90.0096 0 0 0 471.04 302.08l-15.36-1.536a106.9056 106.9056 0 0 1 8.3968-31.8464zM477.696 348.7744l-14.1312 6.2464a108.3392 108.3392 0 0 1-8.3968-32.4608l15.36-1.536a89.2928 89.2928 0 0 0 7.168 27.7504z"  horiz-adv-x="1024" />

    
    <glyph glyph-name="yanjing" unicode="&#59112;" d="M915.456 314.5728c-10.24 25.1904-99.2256 248.0128-149.6064 291.0208-20.48 17.2032-39.936 24.4736-59.2896 21.7088a59.392 59.392 0 0 1-39.5264-24.9856l25.6-16.896a29.696 29.696 0 0 0 18.6368 11.5712 46.4896 46.4896 0 0 0 34.6112-14.7456c26.0096-22.2208 70.656-114.7904 104.5504-191.8976a97.8944 97.8944 0 0 1-33.8944 27.4432 246.4768 246.4768 0 0 1-121.5488 18.8416H328.9088a312.2176 312.2176 0 0 1-44.8512 0 215.04 215.04 0 0 1-76.5952-18.8416A97.8944 97.8944 0 0 1 174.08 390.3488c33.8944 77.1072 78.5408 169.6768 104.5504 191.8976a46.4896 46.4896 0 0 0 34.6112 14.7456 29.9008 29.9008 0 0 0 18.5344-11.3664l25.7024 16.6912A59.392 59.392 0 0 1 317.44 627.3024c-19.3536 2.7648-39.2192-4.5056-59.2896-21.7088-50.3808-43.008-139.5712-266.24-149.6064-291.0208a15.36 15.36 0 0 1 14.336-21.0944h26.4192a165.2736 165.2736 0 0 1 35.9424-86.528c32.8704-40.0384 92.7744-66.3552 150.3232-66.3552h4.3008c45.1584 1.024 82.7392 18.7392 105.984 49.7664 36.9664 49.4592 51.2 102.4 39.6288 148.2752v0.8192h53.6576a2.4576 2.4576 0 0 1 0-0.8192c-11.4688-46.1824 2.6624-98.816 39.6288-148.2752 23.2448-30.72 60.8256-48.7424 105.984-49.7664h4.3008c57.5488 0 117.4528 26.3168 150.3232 66.3552a165.2736 165.2736 0 0 1 35.9424 86.528H901.12a15.36 15.36 0 0 1 14.2336 21.0944z m-765.0304 21.504c-0.6144-3.8912-1.3312-7.8848-1.7408-11.8784h-3.072z m58.4704-109.568a133.632 133.632 0 0 0-27.4432 109.3632 75.4688 75.4688 0 0 0 39.424 54.1696 184.32 184.32 0 0 0 64.7168 15.872h43.4176a253.2352 253.2352 0 0 0 76.3904-17.2032L288.3584 178.176a159.3344 159.3344 0 0 0-79.4624 48.3328z m212.1728-17.8176c-22.2208-29.7984-56.9344-36.7616-81.92-37.376a170.496 170.496 0 0 0-35.1232 3.1744L419.84 382.0544a72.704 72.704 0 0 0 17.1008-14.1312l-76.5952-139.776 13.5168-7.3728 72.6016 133.12a93.3888 93.3888 0 0 0 9.1136-22.8352c9.1136-36.864-3.072-80.1792-34.5088-122.368z m51.2 161.4848a106.8032 106.8032 0 0 1-33.4848 35.7376h146.1248a106.8032 106.8032 0 0 1-33.4848-35.7376z m130.6624-161.4848c-31.4368 41.984-43.6224 85.504-34.5088 122.88a79.5648 79.5648 0 0 0 41.5744 53.76 243.4048 243.4048 0 0 0 84.992 20.48h3.6864c5.9392 0 11.9808 0.6144 17.92 0.6144a207.2576 207.2576 0 0 0 84.6848-15.9744L679.3216 171.6224a99.2256 99.2256 0 0 0-76.3904 37.0688z m212.1728 17.8176c-25.2928-30.72-72.704-52.6336-118.272-54.9888L814.3872 382.976a69.2224 69.2224 0 0 0 15.6672-16.9984l-75.0592-137.8304 13.5168-7.3728 69.9392 128.6144a94.208 94.208 0 0 0 4.096-13.5168 133.632 133.632 0 0 0-27.4432-109.3632z m60.2112 97.6896c0 3.9936-1.1264 7.9872-1.7408 11.8784l4.8128-11.8784z"  horiz-adv-x="1024" />

    
    <glyph glyph-name="child" unicode="&#59033;" d="M408 464a40 40 0 1 0 0 80 40 40 0 0 0 0-80zM800 352a32 32 0 1 0 0 64 32 32 0 0 0 0-64zM496 640c-141.392 0-256-114.608-256-256s114.608-256 256-256c66.704 0 129.088 25.648 175.936 70.016L485.968 384l185.968 185.984A255.168 255.168 0 0 1 496 640z m233.632-80.224L553.84 384l173.968-173.968a16 16 0 0 0 0.976-21.552l-1.008-1.216A303.328 303.328 0 0 0 496 80c-167.888 0-304 136.112-304 304s136.112 304 304 304c94.384 0 178.72-43.008 234.464-110.496a13.184 13.184 0 0 0-0.832-17.728z"  horiz-adv-x="1024" />

    
    <glyph glyph-name="settings" unicode="&#59034;" d="M396.72 575.408a141.184 141.184 0 0 0-99.824-15.92 277.648 277.648 0 0 1-45.344-74.576 141.216 141.216 0 0 0 37.52-95.952 141.248 141.248 0 0 0-41.728-100.32 274.4 274.4 0 0 1 49.952-86.224 141.264 141.264 0 0 0 107.168-14.176 141.216 141.216 0 0 0 63.984-79.296 274.72 274.72 0 0 1 86.816 1.92 141.248 141.248 0 0 0 66.016 86.304 141.216 141.216 0 0 0 101.856 15.488 277.648 277.648 0 0 1 41.92 76.544 141.184 141.184 0 0 0-36.128 94.4c0 34.912 12.768 67.68 34.816 92.96a274.736 274.736 0 0 1-38.192 70.032 141.264 141.264 0 0 0-105.792 14.56 141.312 141.312 0 0 0-67.168 90.912 274.4 274.4 0 0 1-92.784-0.016 141.152 141.152 0 0 0-63.088-76.64z m22.56 116.656c57.312 16 119.024 16.224 178.016-1.216a93.44 93.44 0 0 1 142.288-86.736 322.64 322.64 0 0 0 79.104-142.656 93.328 93.328 0 0 1-41.76-77.84 93.36 93.36 0 0 1 42.88-78.592 322.832 322.832 0 0 0-34.208-85.232 323.392 323.392 0 0 0-47.968-63.568 93.392 93.392 0 0 1-92.352-0.64 93.408 93.408 0 0 1-46.688-83.616 322.704 322.704 0 0 0-171.424-3.84 93.376 93.376 0 0 1-46.704 78.544 93.408 93.408 0 0 1-95.184-1.008A322.432 322.432 0 0 0 192 306.72a93.408 93.408 0 0 1 49.072 82.24c0 34.128-18.304 64-45.632 80.288a323.392 323.392 0 0 0 31.088 73.328 322.832 322.832 0 0 0 56.704 72.256 93.36 93.36 0 0 1 89.488 2.144 93.328 93.328 0 0 1 46.56 75.088z m92.208-385.28a68.864 68.864 0 1 1 0 137.76 68.864 68.864 0 0 1 0-137.76z m0-48a116.864 116.864 0 1 0 0 233.76 116.864 116.864 0 0 0 0-233.76z"  horiz-adv-x="1024" />

    
    <glyph glyph-name="brightness" unicode="&#59032;" d="M504 208c97.2 0 176 78.8 176 176s-78.8 176-176 176-176-78.8-176-176 78.8-176 176-176z m0-48c-123.712 0-224 100.288-224 224s100.288 224 224 224 224-100.288 224-224-100.288-224-224-224z m0 576h16a16 16 0 0 0 16-16v-64a16 16 0 0 0-16-16h-16a16 16 0 0 0-16 16v64a16 16 0 0 0 16 16z m251.248-97.44l11.312-11.312a16 16 0 0 0 0-22.624L721.28 559.36a16 16 0 0 0-22.624 0l-11.312 11.312a16 16 0 0 0 0 22.624l45.264 45.264a16 16 0 0 0 22.624 0zM864 392v-16a16 16 0 0 0-16-16h-64a16 16 0 0 0-16 16v16a16 16 0 0 0 16 16h64a16 16 0 0 0 16-16z m-97.44-251.248l-11.312-11.312a16 16 0 0 0-22.624 0L687.36 174.72a16 16 0 0 0 0 22.624l11.312 11.312a16 16 0 0 0 22.624 0l45.264-45.264a16 16 0 0 0 0-22.624zM520 32h-16a16 16 0 0 0-16 16v64a16 16 0 0 0 16 16h16a16 16 0 0 0 16-16v-64a16 16 0 0 0-16-16z m-251.248 97.44l-11.312 11.312a16 16 0 0 0 0 22.624l45.264 45.264a16 16 0 0 0 22.624 0l11.312-11.312a16 16 0 0 0 0-22.624L291.36 129.44a16 16 0 0 0-22.624 0zM160 376v16a16 16 0 0 0 16 16h64a16 16 0 0 0 16-16v-16a16 16 0 0 0-16-16h-64a16 16 0 0 0-16 16z m97.44 251.248l11.312 11.312a16 16 0 0 0 22.624 0l45.264-45.264a16 16 0 0 0 0-22.624l-11.312-11.312a16 16 0 0 0-22.624 0L257.44 604.64a16 16 0 0 0 0 22.624z"  horiz-adv-x="1024" />

    
    <glyph glyph-name="home" unicode="&#59035;" d="M267.168 441.376v-316.48h152V297.776c0 6.144 4.992 11.12 11.136 11.12h169.728c6.16 0 11.136-4.976 11.136-11.12v-172.88h136V442.4l-239.36 188.848-240.64-189.856z m-48-37.872l-39.36-31.04a16 16 0 0 0-22.464 2.656l-9.904 12.56a16 16 0 0 0 2.656 22.464l347.792 274.416a16 16 0 0 0 19.84 0l347.792-274.4a16 16 0 0 0 2.656-22.48l-9.92-12.56a16 16 0 0 0-22.464-2.656l-40.624 32.048v-292.48a35.136 35.136 0 0 0-35.136-35.136H254.304a35.136 35.136 0 0 0-35.136 35.136V403.504z m248-270.608h96v128h-96v-128z"  horiz-adv-x="1024" />

    
    <glyph glyph-name="favoriteslist" unicode="&#59036;" d="M192 587.136v25.728c0 6.16 4.976 11.136 11.136 11.136h601.728c6.16 0 11.136-4.976 11.136-11.136v-25.728a11.136 11.136 0 0 0-11.136-11.136H203.136a11.136 11.136 0 0 0-11.136 11.136z m0-208v25.728c0 6.16 4.976 11.136 11.136 11.136h217.728c6.16 0 11.136-4.976 11.136-11.136v-25.728a11.136 11.136 0 0 0-11.136-11.136H203.136a11.136 11.136 0 0 0-11.136 11.136z m554.032-76.832c10.48 10.112 16.368 23.488 16.368 37.696 0 29.776-26 54.4-58.624 54.4-22.72 0-42.928-12.08-52.672-30.512a21.6 21.6 0 0 0-38.208 0c-9.744 18.432-29.952 30.512-52.672 30.512-32.64 0-58.624-24.624-58.624-54.4 0-14.176 5.856-27.52 16.288-37.616 1.296-1.264 2.4-2.624 3.312-4.064l107.248-108.096 115.6 109.92c0.608 0.736 1.264 1.472 1.984 2.16zM458.4 340c0 54.176 45.84 97.6 101.824 97.6 27.472 0 53.072-10.544 71.776-28.352a104.016 104.016 0 0 0 71.776 28.352c55.984 0 101.824-43.424 101.824-97.6a95.136 95.136 0 0 0-26.96-66.176 22.24 22.24 0 0 0-2.496-2.784l-133.264-126.688a21.6 21.6 0 0 0-30.208 0.432l-125.696 126.688a21.984 21.984 0 0 0-3.12 3.968 95.024 95.024 0 0 0-25.456 64.56zM192 171.136v25.728c0 6.16 4.976 11.136 11.136 11.136h217.728c6.16 0 11.136-4.976 11.136-11.136v-25.728a11.136 11.136 0 0 0-11.136-11.136H203.136a11.136 11.136 0 0 0-11.136 11.136z"  horiz-adv-x="1024" />

    
    <glyph glyph-name="addresslist" unicode="&#59099;" d="M443.648 378.848a150.272 150.272 0 0 0-84.688 135.232V569.76a150.256 150.256 0 0 0 300.512 0v-55.664a150.24 150.24 0 0 0-81.536-133.648c178.624-32.944 259.632-200.16 259.632-250.16v-62.096a16 16 0 0 0-16-16H208a16 16 0 0 0-16 16v61.92c0 49.328 78.592 212.384 251.648 248.752z m272.48 266.368v16a16 16 0 0 0 16 16h90.432a16 16 0 0 0 16-16v-16a16 16 0 0 0-16-16h-90.432a16 16 0 0 0-16 16z m0-111.296v16a16 16 0 0 0 16 16h90.432a16 16 0 0 0 16-16v-16a16 16 0 0 0-16-16h-90.432a16 16 0 0 0-16 16z m0-111.312v16a16 16 0 0 0 16 16h90.432a16 16 0 0 0 16-16v-16a16 16 0 0 0-16-16h-90.432a16 16 0 0 0-16 16z m73.44-322.432v30.096c0 6.272-4.96 23.152-14.32 42.512-12.064 24.96-29.44 50.64-50.72 73.6-53.504 57.712-123.952 91.696-209.76 91.696-85.76 0-156.224-34-209.712-91.744-21.28-22.976-38.672-48.688-50.72-73.648C244.96 153.28 240 136.4 240 130.08v-29.92h549.568zM509.216 672a102.256 102.256 0 0 1-102.256-102.256v-55.664a102.256 102.256 0 0 1 204.512 0V569.76A102.256 102.256 0 0 1 509.232 672z"  horiz-adv-x="1024" />

    


  </font>
</defs>
</svg>
